Heebo-DefaultOld.ufo
<glyph name="numbersign" format="2">
  <advance width="1277"/>
  <unicode hex="0023"/>
  <outline>
    <contour>
      <point x="568" y="1456" type="line"/>
      <point x="282" y="0" type="line"/>
      <point x="435" y="0" type="line"/>
      <point x="721" y="1456" type="line"/>
    </contour>
    <contour>
      <point x="974" y="1456" type="line"/>
      <point x="688" y="0" type="line"/>
      <point x="841" y="0" type="line"/>
      <point x="1127" y="1456" type="line"/>
    </contour>
    <contour>
      <point x="203" y="894" type="line"/>
      <point x="1243" y="894" type="line"/>
      <point x="1243" y="1040" type="line"/>
      <point x="203" y="1040" type="line"/>
    </contour>
    <contour>
      <point x="127" y="410" type="line"/>
      <point x="1168" y="410" type="line"/>
      <point x="1168" y="555" type="line"/>
      <point x="127" y="555" type="line"/>
    </contour>
  </outline>
</glyph>
<glyph name="quotesingle" format="2">
  <advance width="360"/>
  <unicode hex="0027"/>
  <guideline y="901"/>
  <guideline y="555"/>
  <outline>
    <contour>
      <point x="260" y="1431" type="line"/>
      <point x="260" y="1536" type="line"/>
      <point x="100" y="1536" type="line"/>
      <point x="100" y="1413" type="line"/>
      <point x="100" y="1052" type="line"/>
      <point x="238" y="1052" type="line"/>
    </contour>
  </outline>
</glyph>
<glyph name="comma" format="2">
  <advance width="405"/>
  <unicode hex="002C"/>
  <guideline y="901"/>
  <guideline y="555"/>
  <anchor x="317" y="225" name="_bottom"/>
  <anchor x="122" y="72" name="_right"/>
  <outline>
    <contour>
      <point x="317" y="75" type="curve"/>
      <point x="317" y="225" type="line"/>
      <point x="122" y="225" type="line"/>
      <point x="122" y="72" type="line"/>
      <point x="122" y="-37"/>
      <point x="85" y="-129"/>
      <point x="22" y="-218" type="curve"/>
      <point x="135" y="-294" type="line"/>
      <point x="251" y="-201"/>
      <point x="317" y="-46"/>
    </contour>
  </outline>
</glyph>
<glyph name="slash" format="2">
  <advance width="852"/>
  <unicode hex="002F"/>
  <guideline y="901"/>
  <guideline y="555"/>
  <outline>
    <contour>
      <point x="186" y="-125" type="line"/>
      <point x="793" y="1456" type="line"/>
      <point x="624" y="1456" type="line"/>
      <point x="16" y="-125" type="line"/>
    </contour>
  </outline>
</glyph>
<glyph name="one" format="2">
  <advance width="1154"/>
  <unicode hex="0031"/>
  <guideline y="901"/>
  <guideline y="555"/>
  <outline>
    <contour>
      <point x="737" y="0" type="line"/>
      <point x="737" y="1464" type="line"/>
      <point x="706" y="1464" type="line"/>
      <point x="169" y="1262" type="line"/>
      <point x="169" y="1085" type="line"/>
      <point x="537" y="1220" type="line"/>
      <point x="537" y="0" type="line"/>
    </contour>
  </outline>
</glyph>
<glyph name="six" format="2">
  <advance width="1154"/>
  <unicode hex="0036"/>
  <outline>
    <contour>
      <point x="848" y="1456" type="line"/>
      <point x="832" y="1456" type="line"/>
      <point x="250" y="1456"/>
      <point x="133" y="1018"/>
      <point x="133" y="623" type="curve" smooth="yes"/>
      <point x="133" y="543" type="line" smooth="yes"/>
      <point x="133" y="276"/>
      <point x="281" y="-20"/>
      <point x="601" y="-20" type="curve" smooth="yes"/>
      <point x="902" y="-20"/>
      <point x="1057" y="199"/>
      <point x="1057" y="475" type="curve" smooth="yes"/>
      <point x="1057" y="711"/>
      <point x="933" y="955"/>
      <point x="640" y="955" type="curve" smooth="yes"/>
      <point x="433" y="955"/>
      <point x="256" y="840"/>
      <point x="214" y="534" type="curve"/>
      <point x="318" y="533" type="line"/>
      <point x="331" y="670"/>
      <point x="458" y="793"/>
      <point x="607" y="793" type="curve" smooth="yes"/>
      <point x="779" y="793"/>
      <point x="860" y="633"/>
      <point x="860" y="465" type="curve" smooth="yes"/>
      <point x="860" y="274"/>
      <point x="767" y="142"/>
      <point x="601" y="142" type="curve" smooth="yes"/>
      <point x="466" y="142"/>
      <point x="334" y="279"/>
      <point x="334" y="537" type="curve"/>
      <point x="334" y="753" type="line" smooth="yes"/>
      <point x="334" y="1004"/>
      <point x="435" y="1290"/>
      <point x="832" y="1290" type="curve" smooth="yes"/>
      <point x="848" y="1290" type="line"/>
    </contour>
  </outline>
</glyph>
<glyph name="greater" format="2">
  <advance width="1073"/>
  <unicode hex="003E"/>
  <guideline y="181"/>
  <guideline y="526"/>
  <outline>
    <contour>
      <point x="137" y="900" type="line"/>
      <point x="839" y="630" type="line"/>
      <point x="993" y="601" type="line"/>
      <point x="993" y="724" type="line"/>
      <point x="137" y="1102" type="line"/>
    </contour>
    <contour>
      <point x="840" y="670" type="line"/>
      <point x="137" y="394" type="line"/>
      <point x="137" y="191" type="line"/>
      <point x="993" y="570" type="line"/>
      <point x="993" y="692" type="line"/>
    </contour>
  </outline>
</glyph>
<glyph name="A" format="2">
  <advance width="1349"/>
  <unicode hex="0041"/>
  <guideline y="901"/>
  <guideline y="555"/>
  <anchor x="691" y="0" name="bottom"/>
  <anchor x="1349" y="-407" name="bottom_dd"/>
  <anchor x="1281" y="0" name="ogonek"/>
  <anchor x="1319" y="0" name="right"/>
  <anchor x="370" y="1454" name="tonos"/>
  <anchor x="679" y="1600" name="top"/>
  <anchor x="1349" y="1600" name="top0315"/>
  <anchor x="1349" y="1600" name="top_dd"/>
  <outline>
    <contour>
      <point x="241" y="0" type="line"/>
      <point x="718" y="1320" type="line"/>
      <point x="720" y="1456" type="line"/>
      <point x="585" y="1456" type="line"/>
      <point x="28" y="0" type="line"/>
    </contour>
    <contour>
      <point x="632" y="1320" type="line"/>
      <point x="1110" y="0" type="line"/>
      <point x="1323" y="0" type="line"/>
      <point x="765" y="1456" type="line"/>
      <point x="630" y="1456" type="line"/>
    </contour>
    <contour>
      <point x="1099" y="376" type="line"/>
      <point x="1099" y="543" type="line"/>
      <point x="271" y="543" type="line"/>
      <point x="271" y="376" type="line"/>
    </contour>
  </outline>
</glyph>
<glyph name="D" format="2">
  <advance width="1344"/>
  <unicode hex="0044"/>
  <guideline y="901"/>
  <guideline y="555"/>
  <anchor x="615" y="10" name="bottom"/>
  <anchor x="1344" y="-407" name="bottom_dd"/>
  <anchor x="318" y="738" name="cross"/>
  <anchor x="611" y="1612" name="top"/>
  <anchor x="1344" y="1612" name="top0315"/>
  <anchor x="1344" y="1600" name="top_dd"/>
  <outline>
    <contour>
      <point x="260" y="0" type="line"/>
      <point x="559" y="0" type="line"/>
      <point x="969" y="0"/>
      <point x="1225" y="263"/>
      <point x="1225" y="688" type="curve"/>
      <point x="1225" y="767" type="line"/>
      <point x="1225" y="1192"/>
      <point x="965" y="1456"/>
      <point x="578" y="1456" type="curve"/>
      <point x="254" y="1456" type="line"/>
      <point x="254" y="1289" type="line"/>
      <point x="578" y="1289" type="line"/>
      <point x="863" y="1289"/>
      <point x="1019" y="1102"/>
      <point x="1019" y="769" type="curve"/>
      <point x="1019" y="688" type="line" smooth="yes"/>
      <point x="1019" y="371"/>
      <point x="869" y="166"/>
      <point x="559" y="166" type="curve"/>
      <point x="262" y="166" type="line"/>
    </contour>
    <contour>
      <point x="374" y="0" type="line"/>
      <point x="374" y="1456" type="line"/>
      <point x="166" y="1456" type="line"/>
      <point x="166" y="0" type="line"/>
    </contour>
  </outline>
</glyph>
<glyph name="E" format="2">
  <advance width="1164"/>
  <unicode hex="0045"/>
  <anchor x="619" y="10" name="bottom"/>
  <anchor x="1164" y="-407" name="bottom_dd"/>
  <anchor x="1021" y="0" name="ogonek"/>
  <anchor x="-39" y="1455" name="tonos"/>
  <anchor x="619" y="1612" name="top"/>
  <anchor x="1164" y="1612" name="top0315"/>
  <anchor x="1164" y="1600" name="top_dd"/>
  <outline>
    <contour>
      <point x="1095" y="0" type="line"/>
      <point x="1095" y="166" type="line"/>
      <point x="335" y="166" type="line"/>
      <point x="335" y="0" type="line"/>
    </contour>
    <contour>
      <point x="374" y="0" type="line"/>
      <point x="374" y="1456" type="line"/>
      <point x="166" y="1456" type="line"/>
      <point x="166" y="0" type="line"/>
    </contour>
    <contour>
      <point x="993" y="669" type="line"/>
      <point x="993" y="835" type="line"/>
      <point x="335" y="835" type="line"/>
      <point x="335" y="669" type="line"/>
    </contour>
    <contour>
      <point x="1084" y="1289" type="line"/>
      <point x="1084" y="1456" type="line"/>
      <point x="335" y="1456" type="line"/>
      <point x="335" y="1289" type="line"/>
    </contour>
  </outline>
</glyph>
<glyph name="F" format="2">
  <advance width="1128"/>
  <unicode hex="0046"/>
  <anchor x="531" y="10" name="bottom"/>
  <anchor x="1128" y="-407" name="bottom_dd"/>
  <anchor x="333" y="337" name="cross"/>
  <anchor x="619" y="1612" name="top"/>
  <anchor x="1128" y="1612" name="top0315"/>
  <anchor x="1128" y="1600" name="top_dd"/>
  <outline>
    <contour>
      <point x="374" y="0" type="line"/>
      <point x="374" y="1456" type="line"/>
      <point x="166" y="1456" type="line"/>
      <point x="166" y="0" type="line"/>
    </contour>
    <contour>
      <point x="969" y="637" type="line"/>
      <point x="969" y="803" type="line"/>
      <point x="332" y="803" type="line"/>
      <point x="332" y="637" type="line"/>
    </contour>
    <contour>
      <point x="1068" y="1289" type="line"/>
      <point x="1068" y="1456" type="line"/>
      <point x="332" y="1456" type="line"/>
      <point x="332" y="1289" type="line"/>
    </contour>
  </outline>
</glyph>
<glyph name="H" format="2">
  <advance width="1463"/>
  <unicode hex="0048"/>
  <anchor x="714" y="10" name="bottom"/>
  <anchor x="1463" y="-407" name="bottom_dd"/>
  <anchor x="1293" y="0" name="right"/>
  <anchor x="-25" y="1457" name="tonos"/>
  <anchor x="712" y="1612" name="top"/>
  <anchor x="1463" y="1612" name="top0315"/>
  <anchor x="1463" y="1600" name="top_dd"/>
  <outline>
    <contour>
      <point x="1110" y="669" type="line"/>
      <point x="1110" y="835" type="line"/>
      <point x="344" y="835" type="line"/>
      <point x="344" y="669" type="line"/>
    </contour>
    <contour>
      <point x="374" y="0" type="line"/>
      <point x="374" y="1456" type="line"/>
      <point x="166" y="1456" type="line"/>
      <point x="166" y="0" type="line"/>
    </contour>
    <contour>
      <point x="1294" y="0" type="line"/>
      <point x="1294" y="1456" type="line"/>
      <point x="1086" y="1456" type="line"/>
      <point x="1086" y="0" type="line"/>
    </contour>
  </outline>
</glyph>
<glyph name="I" format="2">
  <advance width="560"/>
  <unicode hex="0049"/>
  <guideline y="901"/>
  <guideline y="555"/>
  <anchor x="280" y="10" name="bottom"/>
  <anchor x="560" y="-407" name="bottom_dd"/>
  <anchor x="347" y="0" name="ogonek"/>
  <anchor x="380" y="0" name="right"/>
  <anchor x="-21" y="1457" name="tonos"/>
  <anchor x="280" y="1612" name="top"/>
  <anchor x="560" y="1612" name="top0315"/>
  <anchor x="560" y="1600" name="top_dd"/>
  <outline>
    <contour>
      <point x="385" y="0" type="line"/>
      <point x="385" y="1456" type="line"/>
      <point x="177" y="1456" type="line"/>
      <point x="177" y="0" type="line"/>
    </contour>
  </outline>
</glyph>
<glyph name="J" format="2">
  <advance width="1131"/>
  <unicode hex="004A"/>
  <guideline y="901"/>
  <guideline y="555"/>
  <anchor x="512" y="-10" name="bottom"/>
  <anchor x="1131" y="-407" name="bottom_dd"/>
  <anchor x="846" y="1601" name="top"/>
  <anchor x="1131" y="1601" name="top0315"/>
  <anchor x="1131" y="1600" name="top_dd"/>
  <outline>
    <contour>
      <point x="769" y="1456" type="line"/>
      <point x="769" y="424" type="line"/>
      <point x="769" y="242"/>
      <point x="660" y="146"/>
      <point x="513" y="146" type="curve" smooth="yes"/>
      <point x="366" y="146"/>
      <point x="257" y="224"/>
      <point x="257" y="403" type="curve"/>
      <point x="49" y="403" type="line"/>
      <point x="49" y="116"/>
      <point x="244" y="-20"/>
      <point x="513" y="-20" type="curve" smooth="yes"/>
      <point x="784" y="-20"/>
      <point x="977" y="136"/>
      <point x="977" y="424" type="curve"/>
      <point x="977" y="1456" type="line"/>
    </contour>
  </outline>
</glyph>
<glyph name="K" format="2">
  <advance width="1283"/>
  <unicode hex="004B"/>
  <anchor x="664" y="88" name="bottom"/>
  <anchor x="1283" y="-407" name="bottom_dd"/>
  <anchor x="276" y="1229" name="cross"/>
  <anchor x="1228" y="0" name="right"/>
  <anchor x="605" y="1601" name="top"/>
  <anchor x="1283" y="1601" name="top0315"/>
  <anchor x="1283" y="1600" name="top_dd"/>
  <outline>
    <contour>
      <point x="374" y="0" type="line"/>
      <point x="374" y="1456" type="line"/>
      <point x="166" y="1456" type="line"/>
      <point x="166" y="0" type="line"/>
    </contour>
    <contour>
      <point x="648" y="775" type="line"/>
      <point x="1248" y="1456" type="line"/>
      <point x="999" y="1456" type="line"/>
      <point x="523" y="918" type="line"/>
      <point x="267" y="632" type="line"/>
      <point x="303" y="415" type="line"/>
    </contour>
    <contour>
      <point x="521" y="703" type="line"/>
      <point x="1044" y="0" type="line"/>
      <point x="1292" y="0" type="line"/>
      <point x="645" y="866" type="line"/>
    </contour>
  </outline>
</glyph>
<glyph name="L" format="2">
  <advance width="1108"/>
  <unicode hex="004C"/>
  <anchor x="619" y="10" name="bottom"/>
  <anchor x="1108" y="-407" name="bottom_dd"/>
  <anchor x="608" y="1455" name="caron"/>
  <anchor x="600" y="794" name="dot"/>
  <anchor x="267" y="1600" name="top"/>
  <anchor x="1108" y="1600" name="top0315"/>
  <anchor x="1108" y="1600" name="top_dd"/>
  <outline>
    <contour>
      <point x="1058" y="0" type="line"/>
      <point x="1058" y="166" type="line"/>
      <point x="335" y="166" type="line"/>
      <point x="335" y="0" type="line"/>
    </contour>
    <contour>
      <point x="374" y="0" type="line"/>
      <point x="374" y="1456" type="line"/>
      <point x="166" y="1456" type="line"/>
      <point x="166" y="0" type="line"/>
    </contour>
  </outline>
</glyph>
<glyph name="M" format="2">
  <advance width="1792"/>
  <unicode hex="004D"/>
  <anchor x="895" y="10" name="bottom"/>
  <anchor x="1792" y="-407" name="bottom_dd"/>
  <anchor x="1610" y="0" name="right"/>
  <anchor x="890" y="1600" name="top"/>
  <anchor x="1792" y="1600" name="top0315"/>
  <anchor x="1792" y="1600" name="top_dd"/>
  <outline>
    <contour>
      <point x="433" y="1456" type="line"/>
      <point x="231" y="1456" type="line"/>
      <point x="816" y="0" type="line"/>
      <point x="974" y="0" type="line"/>
      <point x="1560" y="1456" type="line"/>
      <point x="1358" y="1456" type="line"/>
      <point x="896" y="285" type="line"/>
    </contour>
    <contour>
      <point x="343" y="1456" type="line"/>
      <point x="166" y="1456" type="line"/>
      <point x="166" y="0" type="line"/>
      <point x="373" y="0" type="line"/>
      <point x="373" y="556" type="line"/>
    </contour>
    <contour>
      <point x="1625" y="1456" type="line"/>
      <point x="1448" y="1456" type="line"/>
      <point x="1418" y="556" type="line"/>
      <point x="1418" y="0" type="line"/>
      <point x="1625" y="0" type="line"/>
    </contour>
  </outline>
</glyph>
<glyph name="N" format="2">
  <advance width="1462"/>
  <unicode hex="004E"/>
  <anchor x="719" y="10" name="bottom"/>
  <anchor x="1462" y="-407" name="bottom_dd"/>
  <anchor x="1292" y="0" name="right"/>
  <anchor x="726" y="1600" name="top"/>
  <anchor x="1462" y="1600" name="top0315"/>
  <anchor x="1462" y="1600" name="top_dd"/>
  <outline>
    <contour>
      <point x="1293" y="0" type="line"/>
      <point x="1293" y="1456" type="line"/>
      <point x="1087" y="1456" type="line"/>
      <point x="1087" y="350" type="line"/>
      <point x="374" y="1456" type="line"/>
      <point x="166" y="1456" type="line"/>
      <point x="166" y="0" type="line"/>
      <point x="374" y="0" type="line"/>
      <point x="374" y="1102" type="line"/>
      <point x="1084" y="0" type="line"/>
    </contour>
  </outline>
</glyph>
<glyph name="P" format="2">
  <advance width="1299"/>
  <unicode hex="0050"/>
  <anchor x="530" y="10" name="bottom"/>
  <anchor x="1299" y="-407" name="bottom_dd"/>
  <anchor x="25" y="1454" name="tonos"/>
  <anchor x="611" y="1612" name="top"/>
  <anchor x="1299" y="1612" name="top0315"/>
  <anchor x="1299" y="1600" name="top_dd"/>
  <outline>
    <contour>
      <point x="329" y="567" type="line"/>
      <point x="712" y="567" type="line"/>
      <point x="1044" y="567"/>
      <point x="1227" y="727"/>
      <point x="1227" y="1010" type="curve"/>
      <point x="1227" y="1269"/>
      <point x="1044" y="1456"/>
      <point x="712" y="1456" type="curve"/>
      <point x="166" y="1456" type="line"/>
      <point x="166" y="0" type="line"/>
      <point x="374" y="0" type="line"/>
      <point x="374" y="1289" type="line"/>
      <point x="712" y="1289" type="line"/>
      <point x="930" y="1289"/>
      <point x="1019" y="1153"/>
      <point x="1019" y="1008" type="curve"/>
      <point x="1019" y="846"/>
      <point x="930" y="733"/>
      <point x="712" y="733" type="curve"/>
      <point x="329" y="733" type="line"/>
    </contour>
  </outline>
</glyph>
<glyph name="T" format="2">
  <advance width="1222"/>
  <unicode hex="0054"/>
  <anchor x="614" y="0" name="bottom"/>
  <anchor x="1222" y="-407" name="bottom_dd"/>
  <anchor x="619" y="897" name="cross"/>
  <anchor x="710" y="0" name="right"/>
  <anchor x="612" y="1600" name="top"/>
  <anchor x="1222" y="1600" name="top0315"/>
  <anchor x="1222" y="1600" name="top_dd"/>
  <outline>
    <contour>
      <point x="715" y="0" type="line"/>
      <point x="715" y="1456" type="line"/>
      <point x="509" y="1456" type="line"/>
      <point x="509" y="0" type="line"/>
    </contour>
    <contour>
      <point x="1176" y="1289" type="line"/>
      <point x="1176" y="1456" type="line"/>
      <point x="49" y="1456" type="line"/>
      <point x="49" y="1289" type="line"/>
    </contour>
  </outline>
</glyph>
<glyph name="U" format="2">
  <advance width="1324"/>
  <unicode hex="0055"/>
  <guideline y="901"/>
  <guideline y="555"/>
  <guideline x="664"/>
  <anchor x="664" y="0" name="bottom"/>
  <anchor x="1324" y="-407" name="bottom_dd"/>
  <anchor x="941" y="45" name="ogonek"/>
  <anchor x="838" y="0" name="right"/>
  <anchor x="664" y="1600" name="top"/>
  <anchor x="1324" y="1600" name="top0315"/>
  <anchor x="1324" y="1600" name="top_dd"/>
  <outline>
    <contour>
      <point x="1196" y="1456" type="line"/>
      <point x="988" y="1456" type="line"/>
      <point x="988" y="471" type="line" smooth="yes"/>
      <point x="988" y="248"/>
      <point x="860" y="146"/>
      <point x="664" y="146" type="curve" smooth="yes"/>
      <point x="470" y="146"/>
      <point x="341" y="248"/>
      <point x="341" y="471" type="curve" smooth="yes"/>
      <point x="341" y="1456" type="line"/>
      <point x="135" y="1456" type="line"/>
      <point x="135" y="471" type="line"/>
      <point x="135" y="143"/>
      <point x="366" y="-20"/>
      <point x="664" y="-20" type="curve" smooth="yes"/>
      <point x="946" y="-20"/>
      <point x="1196" y="143"/>
      <point x="1196" y="471" type="curve"/>
    </contour>
  </outline>
</glyph>
<glyph name="V" format="2">
  <advance width="1313"/>
  <unicode hex="0056"/>
  <guideline y="901"/>
  <guideline y="555"/>
  <anchor x="660" y="10" name="bottom"/>
  <anchor x="1313" y="-407" name="bottom_dd"/>
  <anchor x="660" y="1612" name="top"/>
  <anchor x="1313" y="1612" name="top0315"/>
  <anchor x="1313" y="1600" name="top_dd"/>
  <outline>
    <contour>
      <point x="1061" y="1456" type="line"/>
      <point x="639" y="228" type="line"/>
      <point x="588" y="0" type="line"/>
      <point x="748" y="0" type="line"/>
      <point x="1287" y="1456" type="line"/>
    </contour>
    <contour>
      <point x="672" y="228" type="line"/>
      <point x="254" y="1456" type="line"/>
      <point x="28" y="1456" type="line"/>
      <point x="566" y="0" type="line"/>
      <point x="726" y="0" type="line"/>
    </contour>
  </outline>
</glyph>
<glyph name="X" format="2">
  <advance width="1291"/>
  <unicode hex="0058"/>
  <guideline y="901"/>
  <guideline y="555"/>
  <guideline x="698"/>
  <anchor x="644" y="10" name="bottom"/>
  <anchor x="1291" y="-407" name="bottom_dd"/>
  <anchor x="647" y="742" name="cross"/>
  <anchor x="1109" y="0" name="right"/>
  <anchor x="652" y="1612" name="top"/>
  <anchor x="1291" y="1612" name="top0315"/>
  <anchor x="1291" y="1600" name="top_dd"/>
  <outline>
    <contour>
      <point x="648" y="908" type="line"/>
      <point x="311" y="1456" type="line"/>
      <point x="68" y="1456" type="line"/>
      <point x="524" y="734" type="line"/>
      <point x="58" y="0" type="line"/>
      <point x="303" y="0" type="line"/>
      <point x="648" y="557" type="line"/>
      <point x="992" y="0" type="line"/>
      <point x="1237" y="0" type="line"/>
      <point x="772" y="734" type="line"/>
      <point x="1227" y="1456" type="line"/>
      <point x="984" y="1456" type="line"/>
    </contour>
  </outline>
</glyph>
<glyph name="Y" format="2">
  <advance width="1231"/>
  <unicode hex="0059"/>
  <guideline y="901"/>
  <guideline y="555"/>
  <anchor x="615" y="0" name="bottom"/>
  <anchor x="1231" y="-407" name="bottom_dd"/>
  <anchor x="614" y="594" name="cross"/>
  <anchor x="-63" y="1454" name="tonos"/>
  <anchor x="619" y="1600" name="top"/>
  <anchor x="1231" y="1600" name="top0315"/>
  <anchor x="1231" y="1600" name="top_dd"/>
  <outline>
    <contour>
      <point x="614" y="736" type="line"/>
      <point x="250" y="1456" type="line"/>
      <point x="13" y="1456" type="line"/>
      <point x="510" y="543" type="line"/>
      <point x="510" y="0" type="line"/>
      <point x="718" y="0" type="line"/>
      <point x="718" y="543" type="line"/>
      <point x="1215" y="1456" type="line"/>
      <point x="979" y="1456" type="line"/>
    </contour>
  </outline>
</glyph>
<glyph name="Z" format="2">
  <advance width="1227"/>
  <unicode hex="005A"/>
  <anchor x="610" y="10" name="bottom"/>
  <anchor x="1227" y="-407" name="bottom_dd"/>
  <anchor x="617" y="1600" name="top"/>
  <anchor x="1227" y="1600" name="top0315"/>
  <anchor x="1227" y="1600" name="top_dd"/>
  <outline>
    <contour>
      <point x="1148" y="0" type="line"/>
      <point x="1148" y="166" type="line"/>
      <point x="165" y="166" type="line"/>
      <point x="165" y="0" type="line"/>
    </contour>
    <contour>
      <point x="214" y="0" type="line"/>
      <point x="1116" y="1307" type="line"/>
      <point x="1116" y="1456" type="line"/>
      <point x="987" y="1456" type="line"/>
      <point x="86" y="153" type="line"/>
      <point x="86" y="0" type="line"/>
    </contour>
    <contour>
      <point x="1028" y="1289" type="line"/>
      <point x="1028" y="1456" type="line"/>
      <point x="96" y="1456" type="line"/>
      <point x="96" y="1289" type="line"/>
    </contour>
  </outline>
</glyph>
<glyph name="underscore" format="2">
  <advance width="933"/>
  <unicode hex="005F"/>
  <anchor x="462" y="157" name="_bottom"/>
  <outline>
    <contour>
      <point x="929" y="-160" type="line"/>
      <point x="929" y="0" type="line"/>
      <point x="5" y="0" type="line"/>
      <point x="5" y="-160" type="line"/>
    </contour>
  </outline>
</glyph>
<glyph name="grave" format="2">
  <advance width="644"/>
  <unicode hex="0060"/>
  <anchor x="370" y="1290" name="_top"/>
  <anchor x="370" y="1650" name="mkmktop_acc"/>
  <outline>
    <contour>
      <point x="482" y="1240" type="line"/>
      <point x="288" y="1536" type="line"/>
      <point x="47" y="1536" type="line"/>
      <point x="312" y="1240" type="line"/>
    </contour>
  </outline>
</glyph>
<glyph name="i" format="2">
  <advance width="506"/>
  <unicode hex="0069"/>
  <guideline y="901"/>
  <guideline y="555"/>
  <anchor x="253" y="10" name="bottom"/>
  <anchor x="506" y="-407" name="bottom_dd"/>
  <anchor x="336" y="0" name="ogonek"/>
  <anchor x="284" y="654" name="rhotichook"/>
  <anchor x="255" y="1600" name="top"/>
  <anchor x="506" y="1600" name="top0315"/>
  <anchor x="506" y="1600" name="top_dd"/>
  <outline>
    <contour>
      <point x="353" y="0" type="line"/>
      <point x="353" y="1082" type="line"/>
      <point x="153" y="1082" type="line"/>
      <point x="153" y="0" type="line"/>
    </contour>
    <contour>
      <point x="140" y="1427"/>
      <point x="140" y="1365" type="curve" smooth="yes"/>
      <point x="140" y="1304"/>
      <point x="179" y="1256"/>
      <point x="255" y="1256" type="curve"/>
      <point x="331" y="1256"/>
      <point x="371" y="1304"/>
      <point x="371" y="1365" type="curve"/>
      <point x="371" y="1427"/>
      <point x="331" y="1476"/>
      <point x="255" y="1476" type="curve"/>
      <point x="179" y="1476"/>
    </contour>
  </outline>
</glyph>
<glyph name="j" format="2">
  <advance width="495"/>
  <unicode hex="006A"/>
  <guideline y="659"/>
  <guideline y="1005"/>
  <anchor x="190" y="-459" name="bottom"/>
  <anchor x="495" y="-407" name="bottom_dd"/>
  <anchor x="223" y="1600" name="top"/>
  <anchor x="495" y="1600" name="top0315"/>
  <anchor x="495" y="1600" name="top_dd"/>
  <outline>
    <contour>
      <point x="342" y="1082" type="line"/>
      <point x="142" y="1082" type="line"/>
      <point x="142" y="-129" type="line"/>
      <point x="142" y="-235"/>
      <point x="101" y="-271"/>
      <point x="27" y="-271" type="curve" smooth="yes"/>
      <point x="5" y="-271"/>
      <point x="-31" y="-269"/>
      <point x="-57" y="-263" type="curve"/>
      <point x="-57" y="-420" type="line"/>
      <point x="-26" y="-430"/>
      <point x="25" y="-437"/>
      <point x="59" y="-437" type="curve" smooth="yes"/>
      <point x="250" y="-437"/>
      <point x="342" y="-328"/>
      <point x="342" y="-129" type="curve"/>
    </contour>
    <contour>
      <point x="123" y="1427"/>
      <point x="123" y="1365" type="curve" smooth="yes"/>
      <point x="123" y="1304"/>
      <point x="162" y="1256"/>
      <point x="238" y="1256" type="curve" smooth="yes"/>
      <point x="314" y="1256"/>
      <point x="354" y="1304"/>
      <point x="354" y="1365" type="curve" smooth="yes"/>
      <point x="354" y="1427"/>
      <point x="314" y="1476"/>
      <point x="238" y="1476" type="curve" smooth="yes"/>
      <point x="162" y="1476"/>
    </contour>
  </outline>
</glyph>
<glyph name="l" format="2">
  <advance width="506"/>
  <unicode hex="006C"/>
  <anchor x="253" y="10" name="bottom"/>
  <anchor x="506" y="-407" name="bottom_dd"/>
  <anchor x="483" y="1536" name="caron"/>
  <anchor x="477" y="774" name="dot"/>
  <anchor x="573" y="1543" name="marktop"/>
  <anchor x="253" y="1699" name="top"/>
  <anchor x="506" y="1699" name="top0315"/>
  <anchor x="506" y="1600" name="top_dd"/>
  <outline>
    <contour>
      <point x="353" y="0" type="line"/>
      <point x="353" y="1536" type="line"/>
      <point x="153" y="1536" type="line"/>
      <point x="153" y="0" type="line"/>
    </contour>
  </outline>
</glyph>
<glyph name="n" format="2">
  <advance width="1132"/>
  <unicode hex="006E"/>
  <anchor x="561" y="10" name="bottom"/>
  <anchor x="1132" y="-407" name="bottom_dd"/>
  <anchor x="-31" y="1539" name="caron"/>
  <anchor x="572" y="1290" name="marktop"/>
  <anchor x="995" y="0" name="right"/>
  <anchor x="572" y="1290" name="top"/>
  <anchor x="1132" y="1290" name="top0315"/>
  <anchor x="1132" y="1600" name="top_dd"/>
  <outline>
    <contour>
      <point x="337" y="0" type="line"/>
      <point x="337" y="851" type="line"/>
      <point x="326" y="1082" type="line"/>
      <point x="137" y="1082" type="line"/>
      <point x="137" y="0" type="line"/>
    </contour>
    <contour>
      <point x="207" y="576" type="curve"/>
      <point x="289" y="578" type="line"/>
      <point x="289" y="778"/>
      <point x="414" y="937"/>
      <point x="588" y="937" type="curve" smooth="yes"/>
      <point x="725" y="937"/>
      <point x="796" y="872"/>
      <point x="796" y="712" type="curve" smooth="yes"/>
      <point x="796" y="0" type="line"/>
      <point x="996" y="0" type="line"/>
      <point x="996" y="710" type="line" smooth="yes"/>
      <point x="996" y="993"/>
      <point x="861" y="1102"/>
      <point x="649" y="1102" type="curve" smooth="yes"/>
      <point x="384" y="1102"/>
      <point x="207" y="880"/>
    </contour>
  </outline>
</glyph>
<glyph name="o" format="2">
  <advance width="1173"/>
  <unicode hex="006F"/>
  <guideline y="2079"/>
  <anchor x="586" y="0" name="bottom"/>
  <anchor x="1173" y="-407" name="bottom_dd"/>
  <anchor x="993" y="654" name="rhotichook"/>
  <anchor x="576" y="1290" name="top"/>
  <anchor x="1173" y="1290" name="top0315"/>
  <anchor x="1173" y="1600" name="top_dd"/>
  <outline>
    <contour>
      <point x="92" y="551" type="curve"/>
      <point x="92" y="530" type="line"/>
      <point x="92" y="217"/>
      <point x="281" y="-20"/>
      <point x="587" y="-20" type="curve" smooth="yes"/>
      <point x="893" y="-20"/>
      <point x="1081" y="217"/>
      <point x="1081" y="530" type="curve"/>
      <point x="1081" y="551" type="line"/>
      <point x="1081" y="864"/>
      <point x="893" y="1102"/>
      <point x="585" y="1102" type="curve" smooth="yes"/>
      <point x="281" y="1102"/>
      <point x="92" y="864"/>
    </contour>
    <contour>
      <point x="292" y="530" type="curve"/>
      <point x="292" y="551" type="line"/>
      <point x="292" y="760"/>
      <point x="388" y="942"/>
      <point x="585" y="942" type="curve" smooth="yes"/>
      <point x="784" y="942"/>
      <point x="881" y="760"/>
      <point x="881" y="551" type="curve"/>
      <point x="881" y="530" type="line"/>
      <point x="881" y="319"/>
      <point x="784" y="140"/>
      <point x="587" y="140" type="curve" smooth="yes"/>
      <point x="388" y="140"/>
      <point x="292" y="319"/>
    </contour>
  </outline>
</glyph>
<glyph name="t" format="2">
  <advance width="672"/>
  <unicode hex="0074"/>
  <anchor x="457" y="0" name="bottom"/>
  <anchor x="672" y="-407" name="bottom_dd"/>
  <anchor x="546" y="1664" name="caron"/>
  <anchor x="299" y="676" name="cross"/>
  <anchor x="576" y="1364" name="marktop"/>
  <anchor x="317" y="1476" name="top"/>
  <anchor x="672" y="1476" name="top0315"/>
  <anchor x="672" y="1600" name="top_dd"/>
  <outline>
    <contour>
      <point x="600" y="932" type="line"/>
      <point x="600" y="1082" type="line"/>
      <point x="6" y="1082" type="line"/>
      <point x="6" y="932" type="line"/>
    </contour>
    <contour>
      <point x="403" y="1342" type="line"/>
      <point x="203" y="1342" type="line"/>
      <point x="203" y="270" type="line"/>
      <point x="203" y="53"/>
      <point x="319" y="-20"/>
      <point x="456" y="-20" type="curve" smooth="yes"/>
      <point x="526" y="-20"/>
      <point x="573" y="-8"/>
      <point x="602" y="1" type="curve"/>
      <point x="602" y="160" type="line"/>
      <point x="587" y="156"/>
      <point x="547" y="148"/>
      <point x="517" y="148" type="curve" smooth="yes"/>
      <point x="458" y="148"/>
      <point x="403" y="165"/>
      <point x="403" y="269" type="curve"/>
    </contour>
  </outline>
</glyph>
<glyph name="u" format="2">
  <advance width="1130"/>
  <unicode hex="0075"/>
  <guideline y="202"/>
  <guideline y="547"/>
  <anchor x="563" y="0" name="bottom"/>
  <anchor x="1130" y="-407" name="bottom_dd"/>
  <anchor x="508" y="0" name="bottomu"/>
  <anchor x="982" y="0" name="ogonek"/>
  <anchor x="920" y="654" name="rhotichook"/>
  <anchor x="566" y="1290" name="top"/>
  <anchor x="1130" y="1290" name="top0315"/>
  <anchor x="1130" y="1600" name="top_dd"/>
  <outline>
    <contour>
      <point x="793" y="1082" type="line"/>
      <point x="793" y="250" type="line"/>
      <point x="803" y="0" type="line"/>
      <point x="993" y="0" type="line"/>
      <point x="993" y="1082" type="line"/>
    </contour>
    <contour>
      <point x="911" y="485" type="curve"/>
      <point x="830" y="483" type="line"/>
      <point x="830" y="293"/>
      <point x="750" y="146"/>
      <point x="521" y="146" type="curve" smooth="yes"/>
      <point x="428" y="146"/>
      <point x="333" y="192"/>
      <point x="333" y="381" type="curve"/>
      <point x="333" y="1082" type="line"/>
      <point x="133" y="1082" type="line"/>
      <point x="133" y="383" type="line"/>
      <point x="133" y="96"/>
      <point x="276" y="-20"/>
      <point x="488" y="-20" type="curve" smooth="yes"/>
      <point x="800" y="-20"/>
      <point x="911" y="194"/>
    </contour>
  </outline>
</glyph>
<glyph name="v" format="2">
  <advance width="994"/>
  <unicode hex="0076"/>
  <guideline y="901"/>
  <guideline y="555"/>
  <anchor x="506" y="10" name="bottom"/>
  <anchor x="994" y="-407" name="bottom_dd"/>
  <anchor x="506" y="1280" name="top"/>
  <anchor x="994" y="1280" name="top0315"/>
  <anchor x="994" y="1600" name="top_dd"/>
  <outline>
    <contour>
      <point x="753" y="1082" type="line"/>
      <point x="469" y="176" type="line"/>
      <point x="439" y="0" type="line"/>
      <point x="572" y="0" type="line"/>
      <point x="957" y="1082" type="line"/>
    </contour>
    <contour>
      <point x="531" y="171" type="line"/>
      <point x="236" y="1082" type="line"/>
      <point x="32" y="1082" type="line"/>
      <point x="421" y="0" type="line"/>
      <point x="553" y="0" type="line"/>
    </contour>
  </outline>
</glyph>
<glyph name="w" format="2">
  <advance width="1538"/>
  <unicode hex="0077"/>
  <anchor x="766" y="10" name="bottom"/>
  <anchor x="1538" y="-407" name="bottom_dd"/>
  <anchor x="763" y="1290" name="marktop"/>
  <anchor x="763" y="1290" name="top"/>
  <anchor x="1538" y="1290" name="top0315"/>
  <anchor x="1538" y="1600" name="top_dd"/>
  <outline>
    <contour>
      <point x="687" y="1082" type="line"/>
      <point x="406" y="182" type="line"/>
      <point x="388" y="0" type="line"/>
      <point x="514" y="0" type="line"/>
      <point x="799" y="913" type="line"/>
      <point x="818" y="1082" type="line"/>
    </contour>
    <contour>
      <point x="476" y="171" type="line"/>
      <point x="237" y="1082" type="line"/>
      <point x="39" y="1082" type="line"/>
      <point x="353" y="0" type="line"/>
      <point x="486" y="0" type="line"/>
    </contour>
    <contour>
      <point x="1297" y="1082" type="line"/>
      <point x="1071" y="178" type="line"/>
      <point x="1049" y="0" type="line"/>
      <point x="1181" y="0" type="line"/>
      <point x="1495" y="1082" type="line"/>
    </contour>
    <contour>
      <point x="1122" y="198" type="line"/>
      <point x="847" y="1082" type="line"/>
      <point x="708" y="1082" type="line"/>
      <point x="727" y="915" type="line"/>
      <point x="1020" y="0" type="line"/>
      <point x="1146" y="0" type="line"/>
    </contour>
  </outline>
</glyph>
<glyph name="x" format="2">
  <advance width="1020"/>
  <unicode hex="0078"/>
  <guideline y="901"/>
  <guideline y="555"/>
  <guideline x="544"/>
  <anchor x="511" y="10" name="bottom"/>
  <anchor x="1020" y="-407" name="bottom_dd"/>
  <anchor x="508" y="553" name="cross"/>
  <anchor x="866" y="0" name="right"/>
  <anchor x="508" y="1280" name="top"/>
  <anchor x="1020" y="1280" name="top0315"/>
  <anchor x="1020" y="1600" name="top_dd"/>
  <outline>
    <contour>
      <point x="505" y="695" type="line"/>
      <point x="280" y="1082" type="line"/>
      <point x="50" y="1082" type="line"/>
      <point x="401" y="547" type="line"/>
      <point x="40" y="0" type="line"/>
      <point x="272" y="0" type="line"/>
      <point x="509" y="397" type="line"/>
      <point x="746" y="0" type="line"/>
      <point x="976" y="0" type="line"/>
      <point x="615" y="547" type="line"/>
      <point x="966" y="1082" type="line"/>
      <point x="733" y="1082" type="line"/>
    </contour>
  </outline>
</glyph>
<glyph name="y" format="2">
  <advance width="968"/>
  <unicode hex="0079"/>
  <anchor x="711" y="-158" name="bottom"/>
  <anchor x="968" y="-407" name="bottom_dd"/>
  <anchor x="507" y="1290" name="marktop"/>
  <anchor x="737" y="654" name="rhotichook"/>
  <anchor x="507" y="1290" name="top"/>
  <anchor x="968" y="1290" name="top0315"/>
  <anchor x="968" y="1600" name="top_dd"/>
  <outline>
    <contour>
      <point x="731" y="1082" type="line"/>
      <point x="438" y="113" type="line"/>
      <point x="363" y="-92" type="line" smooth="yes"/>
      <point x="319" y="-226"/>
      <point x="255" y="-266"/>
      <point x="130" y="-266" type="curve" smooth="yes"/>
      <point x="121" y="-266"/>
      <point x="93" y="-264"/>
      <point x="83" y="-262" type="curve"/>
      <point x="83" y="-421" type="line"/>
      <point x="103" y="-426"/>
      <point x="159" y="-437"/>
      <point x="190" y="-437" type="curve" smooth="yes"/>
      <point x="386" y="-437"/>
      <point x="475" y="-274"/>
      <point x="515" y="-166" type="curve" smooth="yes"/>
      <point x="944" y="1082" type="line"/>
    </contour>
    <contour>
      <point x="504" y="258" type="line"/>
      <point x="238" y="1082" type="line"/>
      <point x="20" y="1082" type="line"/>
      <point x="413" y="-21" type="line"/>
      <point x="556" y="50" type="line"/>
    </contour>
  </outline>
</glyph>
<glyph name="z" format="2">
  <advance width="1020"/>
  <unicode hex="007A"/>
  <anchor x="524" y="10" name="bottom"/>
  <anchor x="1020" y="-407" name="bottom_dd"/>
  <anchor x="515" y="1290" name="top"/>
  <anchor x="1020" y="1290" name="top0315"/>
  <anchor x="1020" y="1600" name="top_dd"/>
  <outline>
    <contour>
      <point x="949" y="0" type="line"/>
      <point x="949" y="160" type="line"/>
      <point x="166" y="160" type="line"/>
      <point x="166" y="0" type="line"/>
    </contour>
    <contour>
      <point x="211" y="0" type="line"/>
      <point x="923" y="944" type="line"/>
      <point x="923" y="1082" type="line"/>
      <point x="796" y="1082" type="line"/>
      <point x="89" y="144" type="line"/>
      <point x="89" y="0" type="line"/>
    </contour>
    <contour>
      <point x="835" y="921" type="line"/>
      <point x="835" y="1082" type="line"/>
      <point x="95" y="1082" type="line"/>
      <point x="95" y="921" type="line"/>
    </contour>
  </outline>
</glyph>
<glyph name="acute" format="2">
  <advance width="657"/>
  <unicode hex="00B4"/>
  <anchor x="232" y="1290" name="_top"/>
  <anchor x="232" y="1650" name="mkmktop_acc"/>
  <outline>
    <contour>
      <point x="317" y="1536" type="line"/>
      <point x="123" y="1240" type="line"/>
      <point x="282" y="1240" type="line"/>
      <point x="558" y="1536" type="line"/>
    </contour>
  </outline>
</glyph>
<glyph name="paragraph" format="2">
  <advance width="1008"/>
  <unicode hex="00B6"/>
  <guideline y="901"/>
  <guideline y="555"/>
  <outline>
    <contour>
      <point x="639" y="0" type="line"/>
      <point x="840" y="0" type="line"/>
      <point x="840" y="1456" type="line"/>
      <point x="556" y="1456" type="line" smooth="yes"/>
      <point x="238" y="1456"/>
      <point x="64" y="1256"/>
      <point x="64" y="988" type="curve" smooth="yes"/>
      <point x="64" y="718"/>
      <point x="238" y="520"/>
      <point x="556" y="520" type="curve" smooth="yes"/>
      <point x="639" y="520" type="line"/>
    </contour>
  </outline>
</glyph>
<glyph name="cedilla" format="2">
  <advance width="510"/>
  <unicode hex="00B8"/>
  <anchor x="217" y="0" name="_bottom"/>
  <anchor x="217" y="-440" name="mkmkbottom_acc"/>
  <outline>
    <contour>
      <point x="294" y="0" type="line"/>
      <point x="152" y="0" type="line"/>
      <point x="120" y="-136" type="line"/>
      <point x="231" y="-145"/>
      <point x="278" y="-163"/>
      <point x="278" y="-228" type="curve" smooth="yes"/>
      <point x="278" y="-296"/>
      <point x="210" y="-323"/>
      <point x="120" y="-323" type="curve"/>
      <point x="127" y="-435" type="line"/>
      <point x="328" y="-435"/>
      <point x="432" y="-350"/>
      <point x="432" y="-224" type="curve" smooth="yes"/>
      <point x="432" y="-109"/>
      <point x="357" y="-64"/>
      <point x="282" y="-51" type="curve"/>
    </contour>
  </outline>
</glyph>
<glyph name="Oslash" format="2">
  <advance width="1414"/>
  <unicode hex="00D8"/>
  <anchor x="715" y="1674" name="top"/>
  <anchor x="1414" y="1674" name="top0315"/>
  <anchor x="1414" y="1600" name="top_dd"/>
  <outline>
    <contour>
      <point x="314" y="-95" type="line"/>
      <point x="1317" y="1518" type="line"/>
      <point x="1168" y="1518" type="line"/>
      <point x="163" y="-95" type="line"/>
    </contour>
    <component base="O"/>
  </outline>
</glyph>
<glyph name="oslash" format="2">
  <advance width="1165"/>
  <unicode hex="00F8"/>
  <anchor x="540" y="1289" name="top"/>
  <anchor x="1165" y="1289" name="top0315"/>
  <anchor x="1165" y="1600" name="top_dd"/>
  <outline>
    <contour>
      <point x="326" y="-134" type="line"/>
      <point x="989" y="1208" type="line"/>
      <point x="859" y="1208" type="line"/>
      <point x="196" y="-134" type="line"/>
    </contour>
    <component base="o"/>
  </outline>
</glyph>
<glyph name="dotlessi" format="2">
  <advance width="518"/>
  <unicode hex="0131"/>
  <anchor x="253" y="10" name="bottom"/>
  <anchor x="284" y="654" name="rhotichook"/>
  <anchor x="257" y="1290" name="top"/>
  <anchor x="518" y="1290" name="top0315"/>
  <outline>
    <contour>
      <point x="353" y="0" type="line"/>
      <point x="353" y="1082" type="line"/>
      <point x="153" y="1082" type="line"/>
      <point x="153" y="0" type="line"/>
    </contour>
  </outline>
</glyph>
<glyph name="OE" format="2">
  <advance width="1962"/>
  <unicode hex="0152"/>
  <anchor x="953" y="0" name="bottom"/>
  <anchor x="1962" y="-407" name="bottom_dd"/>
  <anchor x="953" y="1600" name="top"/>
  <anchor x="1962" y="1600" name="top0315"/>
  <anchor x="1962" y="1600" name="top_dd"/>
  <outline>
    <contour>
      <point x="764" y="1477"/>
      <point x="663" y="1477" type="curve" smooth="yes"/>
      <point x="330" y="1477"/>
      <point x="104" y="1233"/>
      <point x="104" y="880" type="curve"/>
      <point x="104" y="576" type="line"/>
      <point x="104" y="223"/>
      <point x="332" y="-21"/>
      <point x="665" y="-21" type="curve" smooth="yes"/>
      <point x="766" y="-21"/>
      <point x="864" y="-10"/>
      <point x="953" y="0" type="curve"/>
      <point x="953" y="167" type="line"/>
      <point x="867" y="151"/>
      <point x="768" y="139"/>
      <point x="665" y="139" type="curve" smooth="yes"/>
      <point x="445" y="139"/>
      <point x="304" y="287"/>
      <point x="304" y="576" type="curve"/>
      <point x="304" y="882" type="line"/>
      <point x="304" y="1169"/>
      <point x="443" y="1317"/>
      <point x="663" y="1317" type="curve" smooth="yes"/>
      <point x="767" y="1317"/>
      <point x="866" y="1305"/>
      <point x="953" y="1289" type="curve"/>
      <point x="953" y="1456" type="line"/>
      <point x="864" y="1467"/>
    </contour>
    <component base="E" xOffset="706"/>
  </outline>
</glyph>
<glyph name="longs" format="2">
  <advance width="518"/>
  <unicode hex="017F"/>
  <anchor x="253" y="10" name="bottom"/>
  <anchor x="434" y="1760" name="top"/>
  <anchor x="518" y="1760" name="top0315"/>
  <outline>
    <contour>
      <point x="159" y="0" type="line"/>
      <point x="359" y="0" type="line"/>
      <point x="359" y="1193" type="line" smooth="yes"/>
      <point x="359" y="1320"/>
      <point x="420" y="1397"/>
      <point x="536" y="1397" type="curve" smooth="yes"/>
      <point x="573" y="1397"/>
      <point x="602" y="1392"/>
      <point x="624" y="1386" type="curve"/>
      <point x="649" y="1536" type="line"/>
      <point x="600" y="1548"/>
      <point x="553" y="1557"/>
      <point x="504" y="1557" type="curve" smooth="yes"/>
      <point x="290" y="1557"/>
      <point x="159" y="1428"/>
      <point x="159" y="1193" type="curve" smooth="yes"/>
    </contour>
  </outline>
</glyph>
<glyph name="circumflex" format="2">
  <advance width="983"/>
  <unicode hex="02C6"/>
  <anchor x="479" y="1290" name="_top"/>
  <anchor x="479" y="1640" name="mkmktop_acc"/>
  <outline>
    <contour>
      <point x="788" y="1262" type="line"/>
      <point x="539" y="1538" type="line"/>
      <point x="419" y="1538" type="line"/>
      <point x="172" y="1263" type="line"/>
      <point x="172" y="1252" type="line"/>
      <point x="334" y="1252" type="line"/>
      <point x="479" y="1419" type="line"/>
      <point x="625" y="1252" type="line"/>
      <point x="788" y="1252" type="line"/>
    </contour>
  </outline>
</glyph>
<glyph name="ring" format="2">
  <advance width="697"/>
  <unicode hex="02DA"/>
  <anchor x="342" y="1278" name="_top"/>
  <anchor x="342" y="1700" name="mkmktop_acc"/>
  <outline>
    <contour>
      <point x="122" y="1528"/>
      <point x="122" y="1411" type="curve"/>
      <point x="122" y="1293"/>
      <point x="217" y="1204"/>
      <point x="342" y="1204" type="curve" smooth="yes"/>
      <point x="466" y="1204"/>
      <point x="562" y="1293"/>
      <point x="562" y="1411" type="curve" smooth="yes"/>
      <point x="562" y="1528"/>
      <point x="466" y="1622"/>
      <point x="342" y="1622" type="curve" smooth="yes"/>
      <point x="217" y="1622"/>
    </contour>
    <contour>
      <point x="226" y="1353"/>
      <point x="226" y="1411" type="curve"/>
      <point x="226" y="1473"/>
      <point x="274" y="1529"/>
      <point x="342" y="1529" type="curve" smooth="yes"/>
      <point x="410" y="1529"/>
      <point x="458" y="1473"/>
      <point x="458" y="1411" type="curve" smooth="yes"/>
      <point x="458" y="1351"/>
      <point x="410" y="1296"/>
      <point x="342" y="1296" type="curve" smooth="yes"/>
      <point x="274" y="1296"/>
    </contour>
  </outline>
</glyph>
<glyph name="tilde" format="2">
  <advance width="983"/>
  <unicode hex="02DC"/>
  <anchor x="484" y="1287" name="_top"/>
  <anchor x="484" y="1606" name="mkmktop_acc"/>
  <outline>
    <contour>
      <point x="842" y="1503" type="curve"/>
      <point x="710" y="1516" type="line"/>
      <point x="710" y="1454"/>
      <point x="667" y="1405"/>
      <point x="612" y="1405" type="curve" smooth="yes"/>
      <point x="507" y="1405"/>
      <point x="457" y="1498"/>
      <point x="346" y="1498" type="curve" smooth="yes"/>
      <point x="222" y="1498"/>
      <point x="127" y="1394"/>
      <point x="127" y="1245" type="curve"/>
      <point x="259" y="1238" type="line"/>
      <point x="259" y="1299"/>
      <point x="301" y="1348"/>
      <point x="356" y="1348" type="curve" smooth="yes"/>
      <point x="466" y="1348"/>
      <point x="487" y="1256"/>
      <point x="622" y="1256" type="curve" smooth="yes"/>
      <point x="745" y="1256"/>
      <point x="842" y="1353"/>
    </contour>
  </outline>
</glyph>
<glyph name="gravecomb" format="2">
  <unicode hex="0300"/>
  <anchor x="-528" y="1290" name="_marktop"/>
  <anchor x="-528" y="1290" name="_top"/>
  <anchor x="-528" y="1650" name="mkmktop"/>
  <anchor x="-652" y="1388" name="parent_top"/>
  <outline>
    <contour>
      <point x="-435" y="1240" type="line"/>
      <point x="-629" y="1536" type="line"/>
      <point x="-870" y="1536" type="line"/>
      <point x="-605" y="1240" type="line"/>
    </contour>
  </outline>
</glyph>
<glyph name="acutecomb" format="2">
  <unicode hex="0301"/>
  <anchor x="-570" y="1290" name="_marktop"/>
  <anchor x="-570" y="1290" name="_top"/>
  <anchor x="-570" y="1650" name="mkmktop"/>
  <anchor x="-449" y="1388" name="parent_top"/>
  <outline>
    <contour>
      <point x="-473" y="1536" type="line"/>
      <point x="-667" y="1240" type="line"/>
      <point x="-508" y="1240" type="line"/>
      <point x="-232" y="1536" type="line"/>
    </contour>
  </outline>
</glyph>
<glyph name="shevahebrew" format="2">
  <unicode hex="05B0"/>
  <anchor x="602" y="0" name="_bottom"/>
  <outline>
    <contour>
      <point x="601" y="-318" type="curve" smooth="yes"/>
      <point x="647" y="-318"/>
      <point x="681" y="-286"/>
      <point x="681" y="-244" type="curve" smooth="yes"/>
      <point x="681" y="-201"/>
      <point x="647" y="-169"/>
      <point x="601" y="-169" type="curve" smooth="yes"/>
      <point x="555" y="-169"/>
      <point x="520" y="-201"/>
      <point x="520" y="-244" type="curve" smooth="yes"/>
      <point x="520" y="-286"/>
      <point x="555" y="-318"/>
    </contour>
    <contour>
      <point x="601" y="-553" type="curve" smooth="yes"/>
      <point x="647" y="-553"/>
      <point x="681" y="-521"/>
      <point x="681" y="-479" type="curve" smooth="yes"/>
      <point x="681" y="-436"/>
      <point x="647" y="-404"/>
      <point x="601" y="-404" type="curve" smooth="yes"/>
      <point x="555" y="-404"/>
      <point x="520" y="-436"/>
      <point x="520" y="-479" type="curve" smooth="yes"/>
      <point x="520" y="-521"/>
      <point x="555" y="-553"/>
    </contour>
  </outline>
</glyph>
<glyph name="hatafsegolhebrew" format="2">
  <unicode hex="05B1"/>
  <anchor x="602" y="0" name="_bottom"/>
  <outline>
    <contour>
      <point x="368" y="-318" type="curve" smooth="yes"/>
      <point x="414" y="-318"/>
      <point x="448" y="-286"/>
      <point x="448" y="-244" type="curve" smooth="yes"/>
      <point x="448" y="-201"/>
      <point x="414" y="-169"/>
      <point x="368" y="-169" type="curve" smooth="yes"/>
      <point x="322" y="-169"/>
      <point x="287" y="-201"/>
      <point x="287" y="-244" type="curve" smooth="yes"/>
      <point x="287" y="-286"/>
      <point x="322" y="-318"/>
    </contour>
    <contour>
      <point x="601" y="-318" type="curve" smooth="yes"/>
      <point x="647" y="-318"/>
      <point x="681" y="-286"/>
      <point x="681" y="-244" type="curve" smooth="yes"/>
      <point x="681" y="-201"/>
      <point x="647" y="-169"/>
      <point x="601" y="-169" type="curve" smooth="yes"/>
      <point x="555" y="-169"/>
      <point x="520" y="-201"/>
      <point x="520" y="-244" type="curve" smooth="yes"/>
      <point x="520" y="-286"/>
      <point x="555" y="-318"/>
    </contour>
    <contour>
      <point x="836" y="-318" type="curve" smooth="yes"/>
      <point x="882" y="-318"/>
      <point x="916" y="-286"/>
      <point x="916" y="-244" type="curve" smooth="yes"/>
      <point x="916" y="-201"/>
      <point x="882" y="-169"/>
      <point x="836" y="-169" type="curve" smooth="yes"/>
      <point x="790" y="-169"/>
      <point x="755" y="-201"/>
      <point x="755" y="-244" type="curve" smooth="yes"/>
      <point x="755" y="-286"/>
      <point x="790" y="-318"/>
    </contour>
    <contour>
      <point x="485" y="-518" type="curve" smooth="yes"/>
      <point x="531" y="-518"/>
      <point x="565" y="-487"/>
      <point x="565" y="-444" type="curve" smooth="yes"/>
      <point x="565" y="-401"/>
      <point x="531" y="-369"/>
      <point x="485" y="-369" type="curve" smooth="yes"/>
      <point x="439" y="-369"/>
      <point x="404" y="-401"/>
      <point x="404" y="-444" type="curve" smooth="yes"/>
      <point x="404" y="-487"/>
      <point x="439" y="-518"/>
    </contour>
    <contour>
      <point x="836" y="-553" type="curve" smooth="yes"/>
      <point x="882" y="-553"/>
      <point x="916" y="-521"/>
      <point x="916" y="-479" type="curve" smooth="yes"/>
      <point x="916" y="-436"/>
      <point x="882" y="-404"/>
      <point x="836" y="-404" type="curve" smooth="yes"/>
      <point x="790" y="-404"/>
      <point x="755" y="-436"/>
      <point x="755" y="-479" type="curve" smooth="yes"/>
      <point x="755" y="-521"/>
      <point x="790" y="-553"/>
    </contour>
  </outline>
</glyph>
<glyph name="hatafpatahhebrew" format="2">
  <unicode hex="05B2"/>
  <anchor x="602" y="0" name="_bottom"/>
  <outline>
    <contour>
      <point x="297" y="-292" type="line"/>
      <point x="674" y="-292" type="line"/>
      <point x="674" y="-194" type="line"/>
      <point x="297" y="-194" type="line"/>
    </contour>
    <contour>
      <point x="827" y="-553" type="curve" smooth="yes"/>
      <point x="873" y="-553"/>
      <point x="907" y="-521"/>
      <point x="907" y="-479" type="curve" smooth="yes"/>
      <point x="907" y="-436"/>
      <point x="873" y="-404"/>
      <point x="827" y="-404" type="curve" smooth="yes"/>
      <point x="781" y="-404"/>
      <point x="746" y="-436"/>
      <point x="746" y="-479" type="curve" smooth="yes"/>
      <point x="746" y="-521"/>
      <point x="781" y="-553"/>
    </contour>
    <contour>
      <point x="827" y="-318" type="curve" smooth="yes"/>
      <point x="873" y="-318"/>
      <point x="907" y="-286"/>
      <point x="907" y="-244" type="curve" smooth="yes"/>
      <point x="907" y="-201"/>
      <point x="873" y="-169"/>
      <point x="827" y="-169" type="curve" smooth="yes"/>
      <point x="781" y="-169"/>
      <point x="746" y="-201"/>
      <point x="746" y="-244" type="curve" smooth="yes"/>
      <point x="746" y="-286"/>
      <point x="781" y="-318"/>
    </contour>
  </outline>
</glyph>
<glyph name="hatafqamatshebrew" format="2">
  <unicode hex="05B3"/>
  <anchor x="602" y="0" name="_bottom"/>
  <outline>
    <contour>
      <point x="488" y="-538" type="curve" smooth="yes"/>
      <point x="534" y="-538"/>
      <point x="568" y="-506"/>
      <point x="568" y="-463" type="curve" smooth="yes"/>
      <point x="568" y="-413"/>
      <point x="528" y="-408"/>
      <point x="520" y="-292" type="curve"/>
      <point x="676" y="-292" type="line"/>
      <point x="676" y="-194" type="line"/>
      <point x="296" y="-194" type="line"/>
      <point x="296" y="-292" type="line"/>
      <point x="455" y="-292" type="line"/>
      <point x="448" y="-408"/>
      <point x="408" y="-413"/>
      <point x="408" y="-463" type="curve" smooth="yes"/>
      <point x="408" y="-503"/>
      <point x="443" y="-538"/>
    </contour>
    <contour>
      <point x="827" y="-553" type="curve" smooth="yes"/>
      <point x="873" y="-553"/>
      <point x="907" y="-521"/>
      <point x="907" y="-479" type="curve" smooth="yes"/>
      <point x="907" y="-436"/>
      <point x="873" y="-404"/>
      <point x="827" y="-404" type="curve" smooth="yes"/>
      <point x="781" y="-404"/>
      <point x="746" y="-436"/>
      <point x="746" y="-479" type="curve" smooth="yes"/>
      <point x="746" y="-521"/>
      <point x="781" y="-553"/>
    </contour>
    <contour>
      <point x="827" y="-318" type="curve" smooth="yes"/>
      <point x="873" y="-318"/>
      <point x="907" y="-286"/>
      <point x="907" y="-244" type="curve" smooth="yes"/>
      <point x="907" y="-201"/>
      <point x="873" y="-169"/>
      <point x="827" y="-169" type="curve" smooth="yes"/>
      <point x="781" y="-169"/>
      <point x="746" y="-201"/>
      <point x="746" y="-244" type="curve" smooth="yes"/>
      <point x="746" y="-286"/>
      <point x="781" y="-318"/>
    </contour>
  </outline>
</glyph>
<glyph name="hiriqhebrew" format="2">
  <unicode hex="05B4"/>
  <anchor x="602" y="0" name="_bottom"/>
  <outline>
    <contour>
      <point x="601" y="-318" type="curve" smooth="yes"/>
      <point x="647" y="-318"/>
      <point x="681" y="-286"/>
      <point x="681" y="-244" type="curve" smooth="yes"/>
      <point x="681" y="-201"/>
      <point x="647" y="-169"/>
      <point x="601" y="-169" type="curve" smooth="yes"/>
      <point x="555" y="-169"/>
      <point x="520" y="-201"/>
      <point x="520" y="-244" type="curve" smooth="yes"/>
      <point x="520" y="-283"/>
      <point x="555" y="-318"/>
    </contour>
  </outline>
</glyph>
<glyph name="tserehebrew" format="2">
  <unicode hex="05B5"/>
  <anchor x="602" y="0" name="_bottom"/>
  <outline>
    <contour>
      <point x="717" y="-318" type="curve" smooth="yes"/>
      <point x="763" y="-318"/>
      <point x="797" y="-286"/>
      <point x="797" y="-244" type="curve" smooth="yes"/>
      <point x="797" y="-201"/>
      <point x="763" y="-169"/>
      <point x="717" y="-169" type="curve" smooth="yes"/>
      <point x="671" y="-169"/>
      <point x="636" y="-201"/>
      <point x="636" y="-244" type="curve" smooth="yes"/>
      <point x="636" y="-283"/>
      <point x="671" y="-318"/>
    </contour>
    <contour>
      <point x="485" y="-318" type="curve" smooth="yes"/>
      <point x="531" y="-318"/>
      <point x="565" y="-286"/>
      <point x="565" y="-244" type="curve" smooth="yes"/>
      <point x="565" y="-201"/>
      <point x="531" y="-169"/>
      <point x="485" y="-169" type="curve" smooth="yes"/>
      <point x="439" y="-169"/>
      <point x="404" y="-201"/>
      <point x="404" y="-244" type="curve" smooth="yes"/>
      <point x="404" y="-283"/>
      <point x="439" y="-318"/>
    </contour>
  </outline>
</glyph>
<glyph name="segolhebrew" format="2">
  <unicode hex="05B6"/>
  <anchor x="602" y="0" name="_bottom"/>
  <outline>
    <contour>
      <point x="717" y="-318" type="curve" smooth="yes"/>
      <point x="763" y="-318"/>
      <point x="797" y="-286"/>
      <point x="797" y="-244" type="curve" smooth="yes"/>
      <point x="797" y="-201"/>
      <point x="763" y="-169"/>
      <point x="717" y="-169" type="curve" smooth="yes"/>
      <point x="671" y="-169"/>
      <point x="636" y="-201"/>
      <point x="636" y="-244" type="curve" smooth="yes"/>
      <point x="636" y="-283"/>
      <point x="671" y="-318"/>
    </contour>
    <contour>
      <point x="601" y="-518" type="curve" smooth="yes"/>
      <point x="647" y="-518"/>
      <point x="681" y="-487"/>
      <point x="681" y="-444" type="curve" smooth="yes"/>
      <point x="681" y="-401"/>
      <point x="647" y="-369"/>
      <point x="601" y="-369" type="curve" smooth="yes"/>
      <point x="555" y="-369"/>
      <point x="520" y="-401"/>
      <point x="520" y="-444" type="curve" smooth="yes"/>
      <point x="520" y="-487"/>
      <point x="555" y="-518"/>
    </contour>
    <contour>
      <point x="485" y="-318" type="curve" smooth="yes"/>
      <point x="531" y="-318"/>
      <point x="565" y="-286"/>
      <point x="565" y="-244" type="curve" smooth="yes"/>
      <point x="565" y="-201"/>
      <point x="531" y="-169"/>
      <point x="485" y="-169" type="curve" smooth="yes"/>
      <point x="439" y="-169"/>
      <point x="404" y="-201"/>
      <point x="404" y="-244" type="curve" smooth="yes"/>
      <point x="404" y="-283"/>
      <point x="439" y="-318"/>
    </contour>
  </outline>
</glyph>
<glyph name="patahhebrew" format="2">
  <unicode hex="05B7"/>
  <anchor x="602" y="0" name="_bottom"/>
  <outline>
    <contour>
      <point x="395" y="-292" type="line"/>
      <point x="806" y="-292" type="line"/>
      <point x="806" y="-194" type="line"/>
      <point x="395" y="-194" type="line"/>
    </contour>
  </outline>
</glyph>
<glyph name="qamatshebrew" format="2">
  <unicode hex="05B8"/>
  <anchor x="602" y="0" name="_bottom"/>
  <outline>
    <contour>
      <point x="603" y="-543" type="curve" smooth="yes"/>
      <point x="649" y="-543"/>
      <point x="683" y="-511"/>
      <point x="683" y="-468" type="curve" smooth="yes"/>
      <point x="683" y="-418"/>
      <point x="643" y="-413"/>
      <point x="635" y="-292" type="curve"/>
      <point x="792" y="-292" type="line"/>
      <point x="792" y="-194" type="line"/>
      <point x="410" y="-194" type="line"/>
      <point x="410" y="-292" type="line"/>
      <point x="570" y="-292" type="line"/>
      <point x="563" y="-413"/>
      <point x="522" y="-418"/>
      <point x="522" y="-468" type="curve" smooth="yes"/>
      <point x="522" y="-508"/>
      <point x="557" y="-543"/>
    </contour>
  </outline>
</glyph>
<glyph name="holamhaserhebrew" format="2">
  <unicode hex="05BA"/>
  <anchor x="265" y="1180" name="_topleft"/>
  <outline>
    <contour>
      <point x="265" y="1333" type="curve" smooth="yes"/>
      <point x="311" y="1333"/>
      <point x="346" y="1364"/>
      <point x="346" y="1407" type="curve" smooth="yes"/>
      <point x="346" y="1450"/>
      <point x="311" y="1482"/>
      <point x="265" y="1482" type="curve" smooth="yes"/>
      <point x="219" y="1482"/>
      <point x="184" y="1450"/>
      <point x="184" y="1407" type="curve" smooth="yes"/>
      <point x="184" y="1368"/>
      <point x="219" y="1333"/>
    </contour>
  </outline>
</glyph>
<glyph name="qubutshebrew" format="2">
  <unicode hex="05BB"/>
  <anchor x="602" y="0" name="_bottom"/>
  <outline>
    <contour>
      <point x="602" y="-318" type="curve" smooth="yes"/>
      <point x="648" y="-318"/>
      <point x="682" y="-286"/>
      <point x="682" y="-244" type="curve" smooth="yes"/>
      <point x="682" y="-201"/>
      <point x="648" y="-169"/>
      <point x="602" y="-169" type="curve" smooth="yes"/>
      <point x="556" y="-169"/>
      <point x="521" y="-201"/>
      <point x="521" y="-244" type="curve" smooth="yes"/>
      <point x="521" y="-283"/>
      <point x="556" y="-318"/>
    </contour>
    <contour>
      <point x="856" y="-698" type="curve" smooth="yes"/>
      <point x="902" y="-698"/>
      <point x="936" y="-666"/>
      <point x="936" y="-624" type="curve" smooth="yes"/>
      <point x="936" y="-581"/>
      <point x="902" y="-548"/>
      <point x="856" y="-548" type="curve" smooth="yes"/>
      <point x="810" y="-548"/>
      <point x="775" y="-581"/>
      <point x="775" y="-624" type="curve" smooth="yes"/>
      <point x="775" y="-663"/>
      <point x="810" y="-698"/>
    </contour>
    <contour>
      <point x="729" y="-508" type="curve" smooth="yes"/>
      <point x="774" y="-508"/>
      <point x="809" y="-476"/>
      <point x="809" y="-434" type="curve" smooth="yes"/>
      <point x="809" y="-392"/>
      <point x="774" y="-359"/>
      <point x="729" y="-359" type="curve" smooth="yes"/>
      <point x="683" y="-359"/>
      <point x="648" y="-391"/>
      <point x="648" y="-434" type="curve" smooth="yes"/>
      <point x="648" y="-473"/>
      <point x="683" y="-508"/>
    </contour>
  </outline>
</glyph>
<glyph name="dageshhebrew" format="2">
  <unicode hex="05BC"/>
  <anchor x="318" y="599" name="_center"/>
  <outline>
    <contour>
      <point x="318" y="524" type="curve" smooth="yes"/>
      <point x="364" y="524"/>
      <point x="399" y="556"/>
      <point x="399" y="599" type="curve" smooth="yes"/>
      <point x="399" y="642"/>
      <point x="364" y="674"/>
      <point x="318" y="674" type="curve" smooth="yes"/>
      <point x="272" y="674"/>
      <point x="237" y="642"/>
      <point x="237" y="599" type="curve" smooth="yes"/>
      <point x="237" y="559"/>
      <point x="272" y="524"/>
    </contour>
  </outline>
</glyph>
<glyph name="maqafhebrew" format="2">
  <advance width="524"/>
  <unicode hex="05BE"/>
  <outline>
    <contour>
      <point x="464" y="1022" type="line"/>
      <point x="464" y="1180" type="line"/>
      <point x="60" y="1180" type="line"/>
      <point x="60" y="1022" type="line"/>
    </contour>
  </outline>
</glyph>
<glyph name="rafehebrew" format="2">
  <unicode hex="05BF"/>
  <anchor x="487" y="1180" name="_top"/>
  <outline>
    <contour>
      <point x="238" y="1358" type="line"/>
      <point x="734" y="1358" type="line"/>
      <point x="734" y="1470" type="line"/>
      <point x="238" y="1470" type="line"/>
    </contour>
  </outline>
</glyph>
<glyph name="shindothebrew" format="2">
  <unicode hex="05C1"/>
  <anchor x="0" y="1180" name="_topright"/>
  <outline>
    <contour>
      <point x="1337" y="1333" type="curve" smooth="yes"/>
      <point x="1383" y="1333"/>
      <point x="1418" y="1364"/>
      <point x="1418" y="1407" type="curve" smooth="yes"/>
      <point x="1418" y="1450"/>
      <point x="1383" y="1482"/>
      <point x="1337" y="1482" type="curve" smooth="yes"/>
      <point x="1291" y="1482"/>
      <point x="1256" y="1450"/>
      <point x="1256" y="1407" type="curve" smooth="yes"/>
      <point x="1256" y="1368"/>
      <point x="1291" y="1333"/>
    </contour>
  </outline>
</glyph>
<glyph name="sindothebrew" format="2">
  <unicode hex="05C2"/>
  <anchor x="0" y="1180" name="_topleft"/>
  <outline>
    <contour>
      <point x="243" y="1333" type="curve" smooth="yes"/>
      <point x="289" y="1333"/>
      <point x="324" y="1364"/>
      <point x="324" y="1407" type="curve" smooth="yes"/>
      <point x="324" y="1450"/>
      <point x="289" y="1482"/>
      <point x="243" y="1482" type="curve" smooth="yes"/>
      <point x="197" y="1482"/>
      <point x="162" y="1450"/>
      <point x="162" y="1407" type="curve" smooth="yes"/>
      <point x="162" y="1368"/>
      <point x="197" y="1333"/>
    </contour>
  </outline>
</glyph>
<glyph name="alefhebrew" format="2">
  <advance width="1323"/>
  <unicode hex="05D0"/>
  <anchor x="685" y="0" name="bottom"/>
  <anchor x="590" y="216" name="center"/>
  <anchor x="686" y="1180" name="top"/>
  <anchor x="40" y="1180" name="topleft"/>
  <outline>
    <contour>
      <point x="1002" y="0" type="line"/>
      <point x="1223" y="0" type="line"/>
      <point x="372" y="1180" type="line"/>
      <point x="150" y="1180" type="line"/>
    </contour>
    <contour>
      <point x="193" y="0" type="line"/>
      <point x="385" y="0" type="line"/>
      <point x="385" y="498" type="line" smooth="yes"/>
      <point x="385" y="618"/>
      <point x="429" y="696"/>
      <point x="523" y="739" type="curve"/>
      <point x="446" y="841" type="line"/>
      <point x="272" y="778"/>
      <point x="193" y="647"/>
      <point x="193" y="424" type="curve" smooth="yes"/>
    </contour>
    <contour>
      <point x="1229" y="1180" type="line"/>
      <point x="1006" y="1180" type="line"/>
      <point x="693" y="618" type="line"/>
      <point x="824" y="465" type="line"/>
    </contour>
  </outline>
</glyph>
<glyph name="bethebrew" format="2">
  <advance width="1084"/>
  <unicode hex="05D1"/>
  <anchor x="536" y="0" name="bottom"/>
  <anchor x="378" y="603" name="center"/>
  <anchor x="486" y="1180" name="top"/>
  <anchor x="17" y="1180" name="topleft"/>
  <outline>
    <contour>
      <point x="60" y="0" type="line"/>
      <point x="1034" y="0" type="line"/>
      <point x="1034" y="151" type="line"/>
      <point x="892" y="167" type="line"/>
      <point x="694" y="159" type="line"/>
      <point x="60" y="159" type="line"/>
    </contour>
    <contour>
      <point x="694" y="45" type="line"/>
      <point x="892" y="45" type="line"/>
      <point x="892" y="737" type="line" smooth="yes"/>
      <point x="892" y="1029"/>
      <point x="731" y="1180"/>
      <point x="424" y="1180" type="curve" smooth="yes"/>
      <point x="124" y="1180" type="line"/>
      <point x="124" y="1022" type="line"/>
      <point x="413" y="1022" type="line" smooth="yes"/>
      <point x="610" y="1022"/>
      <point x="694" y="938"/>
      <point x="694" y="743" type="curve" smooth="yes"/>
    </contour>
  </outline>
</glyph>
<glyph name="dalethebrew" format="2">
  <advance width="1076"/>
  <unicode hex="05D3"/>
  <anchor x="715" y="0" name="bottom"/>
  <anchor x="319" y="603" name="center"/>
  <anchor x="536" y="1180" name="top"/>
  <anchor x="2" y="1180" name="topleft"/>
  <outline>
    <contour>
      <point x="60" y="1180" type="line"/>
      <point x="60" y="1022" type="line"/>
      <point x="615" y="1022" type="line"/>
      <point x="615" y="0" type="line"/>
      <point x="813" y="0" type="line"/>
      <point x="813" y="1022" type="line"/>
      <point x="1012" y="1022" type="line"/>
      <point x="1012" y="1180" type="line"/>
    </contour>
  </outline>
</glyph>
<glyph name="hehebrew" format="2">
  <advance width="1209"/>
  <unicode hex="05D4"/>
  <anchor x="601" y="0" name="bottom"/>
  <anchor x="601" y="603" name="center"/>
  <anchor x="594" y="1180" name="top"/>
  <anchor x="8" y="1180" name="topleft"/>
  <outline>
    <contour>
      <point x="861" y="0" type="line"/>
      <point x="1059" y="0" type="line"/>
      <point x="1059" y="737" type="line"/>
      <point x="1059" y="1029"/>
      <point x="898" y="1180"/>
      <point x="590" y="1180" type="curve" smooth="yes"/>
      <point x="146" y="1180" type="line"/>
      <point x="146" y="1022" type="line"/>
      <point x="579" y="1022" type="line" smooth="yes"/>
      <point x="776" y="1022"/>
      <point x="861" y="938"/>
      <point x="861" y="743" type="curve"/>
    </contour>
    <contour>
      <point x="147" y="0" type="line"/>
      <point x="339" y="0" type="line"/>
      <point x="339" y="417" type="line" smooth="yes"/>
      <point x="339" y="524"/>
      <point x="347" y="594"/>
      <point x="363" y="653" type="curve"/>
      <point x="201" y="653" type="line"/>
      <point x="177" y="604"/>
      <point x="147" y="543"/>
      <point x="147" y="403" type="curve" smooth="yes"/>
    </contour>
  </outline>
</glyph>
<glyph name="vavhebrew" format="2">
  <advance width="612"/>
  <unicode hex="05D5"/>
  <anchor x="335" y="0" name="bottom"/>
  <anchor x="68" y="603" name="center"/>
  <anchor x="273" y="1180" name="top"/>
  <anchor x="268" y="1180" name="topleft"/>
  <outline>
    <contour>
      <point x="234" y="0" type="line"/>
      <point x="432" y="0" type="line"/>
      <point x="432" y="1180" type="line"/>
      <point x="100" y="1180" type="line"/>
      <point x="100" y="1022" type="line"/>
      <point x="234" y="1022" type="line"/>
    </contour>
  </outline>
</glyph>
<glyph name="zayinhebrew" format="2">
  <advance width="731"/>
  <unicode hex="05D6"/>
  <anchor x="410" y="0" name="bottom"/>
  <anchor x="573" y="603" name="center"/>
  <anchor x="357" y="1180" name="top"/>
  <anchor x="2" y="1180" name="topleft"/>
  <outline>
    <contour>
      <point x="314" y="0" type="line"/>
      <point x="518" y="0" type="line"/>
      <point x="353" y="1022" type="line"/>
      <point x="655" y="1022" type="line"/>
      <point x="656" y="1180" type="line"/>
      <point x="75" y="1180" type="line"/>
      <point x="75" y="1028" type="line"/>
      <point x="157" y="1014" type="line"/>
    </contour>
  </outline>
</glyph>
<glyph name="hethebrew" format="2">
  <advance width="1248"/>
  <unicode hex="05D7"/>
  <anchor x="642" y="0" name="bottom"/>
  <anchor x="642" y="603" name="center"/>
  <anchor x="629" y="1180" name="top"/>
  <anchor x="46" y="1180" name="topleft"/>
  <outline>
    <contour>
      <point x="180" y="0" type="line"/>
      <point x="378" y="0" type="line"/>
      <point x="379" y="1022" type="line"/>
      <point x="634" y="1022" type="line" smooth="yes"/>
      <point x="820" y="1022"/>
      <point x="900" y="937"/>
      <point x="900" y="741" type="curve" smooth="yes"/>
      <point x="901" y="0" type="line"/>
      <point x="1098" y="0" type="line"/>
      <point x="1098" y="729" type="line"/>
      <point x="1097" y="1032"/>
      <point x="944" y="1180"/>
      <point x="632" y="1180" type="curve" smooth="yes"/>
      <point x="181" y="1180" type="line"/>
    </contour>
  </outline>
</glyph>
<glyph name="tethebrew" format="2">
  <advance width="1270"/>
  <unicode hex="05D8"/>
  <anchor x="656" y="0" name="bottom"/>
  <anchor x="655" y="603" name="center"/>
  <anchor x="641" y="1175" name="top"/>
  <anchor x="43" y="1180" name="topleft"/>
  <outline>
    <contour>
      <point x="656" y="-22" type="curve" smooth="yes"/>
      <point x="941" y="-22"/>
      <point x="1130" y="169"/>
      <point x="1130" y="455" type="curve" smooth="yes"/>
      <point x="1130" y="846" type="line" smooth="yes"/>
      <point x="1130" y="1058"/>
      <point x="1015" y="1191"/>
      <point x="830" y="1191" type="curve" smooth="yes"/>
      <point x="755" y="1191"/>
      <point x="667" y="1163"/>
      <point x="603" y="1121" type="curve"/>
      <point x="632" y="990" type="line"/>
      <point x="678" y="1012"/>
      <point x="727" y="1027"/>
      <point x="771" y="1027" type="curve" smooth="yes"/>
      <point x="873" y="1027"/>
      <point x="932" y="954"/>
      <point x="932" y="830" type="curve" smooth="yes"/>
      <point x="932" y="440" type="line" smooth="yes"/>
      <point x="932" y="257"/>
      <point x="821" y="135"/>
      <point x="655" y="135" type="curve" smooth="yes"/>
      <point x="489" y="135"/>
      <point x="378" y="257"/>
      <point x="378" y="440" type="curve" smooth="yes"/>
      <point x="378" y="1180" type="line"/>
      <point x="180" y="1180" type="line"/>
      <point x="180" y="455" type="line"/>
      <point x="180" y="169"/>
      <point x="371" y="-22"/>
    </contour>
  </outline>
</glyph>
<glyph name="yodhebrew" format="2">
  <advance width="626"/>
  <unicode hex="05D9"/>
  <anchor x="373" y="0" name="bottom"/>
  <anchor x="88" y="784" name="center"/>
  <anchor x="282" y="1180" name="top"/>
  <anchor x="-6" y="1180" name="topleft"/>
  <outline>
    <contour>
      <point x="268" y="520" type="line"/>
      <point x="466" y="520" type="line"/>
      <point x="466" y="1180" type="line"/>
      <point x="55" y="1180" type="line"/>
      <point x="55" y="1022" type="line"/>
      <point x="268" y="1022" type="line"/>
    </contour>
  </outline>
</glyph>
<glyph name="finalkafhebrew" format="2">
  <advance width="1021"/>
  <unicode hex="05DA"/>
  <anchor x="260" y="534" name="bottom"/>
  <anchor x="327" y="603" name="center"/>
  <anchor x="453" y="1180" name="top"/>
  <anchor x="2" y="1180" name="topleft"/>
  <outline>
    <contour>
      <point x="646" y="-416" type="line"/>
      <point x="841" y="-416" type="line"/>
      <point x="841" y="1180" type="line"/>
      <point x="65" y="1180" type="line"/>
      <point x="65" y="1022" type="line"/>
      <point x="646" y="1022" type="line"/>
    </contour>
  </outline>
</glyph>
<glyph name="kafhebrew" format="2">
  <advance width="1105"/>
  <unicode hex="05DB"/>
  <anchor x="491" y="0" name="bottom"/>
  <anchor x="406" y="603" name="center"/>
  <anchor x="479" y="1180" name="top"/>
  <anchor x="2" y="1180" name="topleft"/>
  <outline>
    <contour>
      <point x="414" y="-17" type="curve" smooth="yes"/>
      <point x="726" y="-18"/>
      <point x="925" y="144"/>
      <point x="925" y="491" type="curve" smooth="yes"/>
      <point x="925" y="1180" type="line"/>
      <point x="122" y="1180" type="line"/>
      <point x="122" y="1022" type="line"/>
      <point x="727" y="1022" type="line"/>
      <point x="727" y="450" type="line" smooth="yes"/>
      <point x="727" y="253"/>
      <point x="614" y="145"/>
      <point x="398" y="141" type="curve" smooth="yes"/>
      <point x="316" y="140"/>
      <point x="220" y="154"/>
      <point x="110" y="183" type="curve"/>
      <point x="78" y="35" type="line"/>
      <point x="200" y="1"/>
      <point x="313" y="-17"/>
    </contour>
  </outline>
</glyph>
<glyph name="lamedhebrew" format="2">
  <advance width="1056"/>
  <unicode hex="05DC"/>
  <anchor x="455" y="0" name="bottom"/>
  <anchor x="306" y="674" name="center"/>
  <anchor x="646" y="1180" name="top"/>
  <anchor x="-39" y="1374" name="topleft"/>
  <outline>
    <contour>
      <point x="81" y="1022" type="line"/>
      <point x="911" y="1022" type="line"/>
      <point x="911" y="1180" type="line"/>
      <point x="279" y="1180" type="line"/>
      <point x="279" y="1536" type="line"/>
      <point x="81" y="1536" type="line"/>
    </contour>
    <contour>
      <point x="984" y="1055" type="line"/>
      <point x="984" y="1180" type="line"/>
      <point x="833" y="1180" type="line"/>
      <point x="344" y="0" type="line"/>
      <point x="556" y="0" type="line"/>
    </contour>
  </outline>
</glyph>
<glyph name="finalmemhebrew" format="2">
  <advance width="1308"/>
  <unicode hex="05DD"/>
  <anchor x="655" y="0" name="bottom"/>
  <anchor x="655" y="603" name="center"/>
  <anchor x="655" y="1180" name="top"/>
  <anchor x="36" y="1180" name="topleft"/>
  <outline>
    <contour>
      <point x="180" y="0" type="line"/>
      <point x="1128" y="0" type="line"/>
      <point x="1128" y="1180" type="line"/>
      <point x="180" y="1180" type="line"/>
    </contour>
    <contour>
      <point x="378" y="159" type="line"/>
      <point x="378" y="1022" type="line"/>
      <point x="930" y="1022" type="line"/>
      <point x="930" y="159" type="line"/>
    </contour>
  </outline>
</glyph>
<glyph name="memhebrew" format="2">
  <advance width="1306"/>
  <unicode hex="05DE"/>
  <anchor x="672" y="0" name="bottom"/>
  <anchor x="692" y="603" name="center"/>
  <anchor x="683" y="1180" name="top"/>
  <anchor x="39" y="1180" name="topleft"/>
  <outline>
    <contour>
      <point x="170" y="0" type="line"/>
      <point x="366" y="0" type="line"/>
      <point x="453" y="762" type="line" smooth="yes"/>
      <point x="473" y="933"/>
      <point x="563" y="1037"/>
      <point x="690" y="1037" type="curve" smooth="yes"/>
      <point x="863" y="1037"/>
      <point x="958" y="928"/>
      <point x="958" y="723" type="curve" smooth="yes"/>
      <point x="958" y="158" type="line"/>
      <point x="667" y="158" type="line"/>
      <point x="667" y="0" type="line"/>
      <point x="1156" y="0" type="line"/>
      <point x="1156" y="700" type="line" smooth="yes"/>
      <point x="1155" y="1030"/>
      <point x="981" y="1203"/>
      <point x="659" y="1203" type="curve" smooth="yes"/>
      <point x="494" y="1203"/>
      <point x="283" y="1166"/>
      <point x="130" y="1112" type="curve"/>
      <point x="176" y="964" type="line"/>
      <point x="246" y="988"/>
      <point x="348" y="1015"/>
      <point x="406" y="1025" type="curve"/>
      <point x="408" y="1022" type="line"/>
      <point x="402" y="1018"/>
      <point x="395" y="1013"/>
      <point x="389" y="1008" type="curve" smooth="yes"/>
      <point x="325" y="955"/>
      <point x="273" y="852"/>
      <point x="259" y="742" type="curve" smooth="yes"/>
    </contour>
  </outline>
</glyph>
<glyph name="finalnunhebrew" format="2">
  <advance width="596"/>
  <unicode hex="05DF"/>
  <anchor x="-133" y="574" name="bottom"/>
  <anchor x="47" y="603" name="center"/>
  <anchor x="256" y="1180" name="top"/>
  <anchor x="1" y="1180" name="topleft"/>
  <outline>
    <contour>
      <point x="221" y="-416" type="line"/>
      <point x="416" y="-416" type="line"/>
      <point x="416" y="1180" type="line"/>
      <point x="85" y="1180" type="line"/>
      <point x="85" y="1022" type="line"/>
      <point x="221" y="1022" type="line"/>
    </contour>
  </outline>
</glyph>
<glyph name="nunhebrew" format="2">
  <advance width="750"/>
  <unicode hex="05E0"/>
  <anchor x="321" y="0" name="bottom"/>
  <anchor x="170" y="603" name="center"/>
  <anchor x="365" y="1180" name="top"/>
  <anchor x="16" y="1180" name="topleft"/>
  <outline>
    <contour>
      <point x="255" y="-20" type="curve" smooth="yes"/>
      <point x="457" y="-20"/>
      <point x="570" y="97"/>
      <point x="570" y="316" type="curve" smooth="yes"/>
      <point x="570" y="1180" type="line"/>
      <point x="146" y="1180" type="line"/>
      <point x="146" y="1022" type="line"/>
      <point x="372" y="1022" type="line"/>
      <point x="372" y="332" type="line" smooth="yes"/>
      <point x="372" y="203"/>
      <point x="317" y="144"/>
      <point x="211" y="144" type="curve" smooth="yes"/>
      <point x="156" y="144"/>
      <point x="105" y="149"/>
      <point x="65" y="156" type="curve"/>
      <point x="60" y="3" type="line"/>
      <point x="126" y="-12"/>
      <point x="185" y="-20"/>
    </contour>
  </outline>
</glyph>
<glyph name="samekhhebrew" format="2">
  <advance width="1313"/>
  <unicode hex="05E1"/>
  <anchor x="682" y="0" name="bottom"/>
  <anchor x="672" y="603" name="center"/>
  <anchor x="641" y="1180" name="top"/>
  <anchor x="34" y="1180" name="topleft"/>
  <outline>
    <contour>
      <point x="671" y="-22" type="curve" smooth="yes"/>
      <point x="972" y="-22"/>
      <point x="1173" y="195"/>
      <point x="1173" y="521" type="curve" smooth="yes"/>
      <point x="1173" y="660" type="line" smooth="yes"/>
      <point x="1173" y="1002"/>
      <point x="973" y="1203"/>
      <point x="640" y="1203" type="curve" smooth="yes"/>
      <point x="473" y="1203"/>
      <point x="257" y="1172"/>
      <point x="100" y="1126" type="curve"/>
      <point x="139" y="977" type="line"/>
      <point x="207" y="996"/>
      <point x="292" y="1018"/>
      <point x="342" y="1024" type="curve"/>
      <point x="343" y="1022" type="line"/>
      <point x="339" y="1020"/>
      <point x="336" y="1018"/>
      <point x="332" y="1015" type="curve" smooth="yes"/>
      <point x="239" y="950"/>
      <point x="168" y="789"/>
      <point x="169" y="636" type="curve" smooth="yes"/>
      <point x="169" y="521" type="line" smooth="yes"/>
      <point x="172" y="195"/>
      <point x="374" y="-22"/>
    </contour>
    <contour>
      <point x="671" y="145" type="curve" smooth="yes"/>
      <point x="489" y="145"/>
      <point x="367" y="295"/>
      <point x="367" y="520" type="curve" smooth="yes"/>
      <point x="367" y="647" type="line" smooth="yes"/>
      <point x="372" y="890"/>
      <point x="484" y="1037"/>
      <point x="661" y="1037" type="curve" smooth="yes"/>
      <point x="855" y="1037"/>
      <point x="976" y="893"/>
      <point x="976" y="657" type="curve" smooth="yes"/>
      <point x="976" y="520" type="line" smooth="yes"/>
      <point x="976" y="295"/>
      <point x="854" y="145"/>
    </contour>
  </outline>
</glyph>
<glyph name="ayinhebrew" format="2">
  <advance width="1195"/>
  <unicode hex="05E2"/>
  <anchor x="567" y="0" name="bottom"/>
  <anchor x="621" y="663" name="center"/>
  <anchor x="573" y="1180" name="top"/>
  <anchor x="18" y="1180" name="topleft"/>
  <outline>
    <contour>
      <point x="485" y="-25" type="curve" smooth="yes"/>
      <point x="798" y="-25"/>
      <point x="1015" y="149"/>
      <point x="1015" y="476" type="curve" smooth="yes"/>
      <point x="1015" y="1180" type="line"/>
      <point x="817" y="1180" type="line"/>
      <point x="817" y="468" type="line" smooth="yes"/>
      <point x="817" y="245"/>
      <point x="674" y="127"/>
      <point x="459" y="127" type="curve" smooth="yes"/>
      <point x="359" y="128"/>
      <point x="241" y="153"/>
      <point x="107" y="205" type="curve"/>
      <point x="60" y="58" type="line"/>
      <point x="217" y="-2"/>
      <point x="360" y="-25"/>
    </contour>
    <contour>
      <point x="123" y="1180" type="line"/>
      <point x="317" y="325" type="line" smooth="yes"/>
      <point x="340" y="222"/>
      <point x="391" y="151"/>
      <point x="448" y="97" type="curve"/>
      <point x="603" y="94" type="line"/>
      <point x="555" y="152"/>
      <point x="532" y="215"/>
      <point x="511" y="313" type="curve" smooth="yes"/>
      <point x="322" y="1180" type="line"/>
    </contour>
  </outline>
</glyph>
<glyph name="finalpehebrew" format="2">
  <advance width="1226"/>
  <unicode hex="05E3"/>
  <anchor x="408" y="446" name="bottom"/>
  <anchor x="622" y="781" name="center"/>
  <anchor x="601" y="1180" name="top"/>
  <anchor x="47" y="1180" name="topleft"/>
  <outline>
    <contour>
      <point x="1046" y="1180" type="line"/>
      <point x="140" y="1180" type="line"/>
      <point x="140" y="1022" type="line"/>
      <point x="285" y="1022" type="line"/>
      <point x="227" y="938"/>
      <point x="189" y="801"/>
      <point x="192" y="667" type="curve" smooth="yes"/>
      <point x="196" y="466" type="line"/>
      <point x="291" y="414"/>
      <point x="369" y="398"/>
      <point x="536" y="398" type="curve"/>
      <point x="536" y="568" type="line"/>
      <point x="463" y="568"/>
      <point x="417" y="573"/>
      <point x="389" y="584" type="curve"/>
      <point x="389" y="722" type="line" smooth="yes"/>
      <point x="389" y="829"/>
      <point x="416" y="949"/>
      <point x="457" y="1022" type="curve"/>
      <point x="850" y="1022" type="line"/>
      <point x="850" y="-416" type="line"/>
      <point x="1046" y="-416" type="line"/>
    </contour>
  </outline>
</glyph>
<glyph name="pehebrew" format="2">
  <advance width="1296"/>
  <unicode hex="05E4"/>
  <anchor x="647" y="0" name="bottom"/>
  <anchor x="657" y="792" name="center"/>
  <anchor x="652" y="1180" name="top"/>
  <anchor x="47" y="1180" name="topleft"/>
  <outline>
    <contour>
      <point x="590" y="-21" type="curve" smooth="yes"/>
      <point x="895" y="-23"/>
      <point x="1116" y="139"/>
      <point x="1116" y="486" type="curve" smooth="yes"/>
      <point x="1116" y="1180" type="line"/>
      <point x="140" y="1180" type="line"/>
      <point x="140" y="1022" type="line"/>
      <point x="285" y="1022" type="line"/>
      <point x="227" y="938"/>
      <point x="192" y="801"/>
      <point x="192" y="667" type="curve" smooth="yes"/>
      <point x="196" y="516" type="line"/>
      <point x="291" y="464"/>
      <point x="369" y="448"/>
      <point x="536" y="448" type="curve"/>
      <point x="536" y="618" type="line"/>
      <point x="463" y="618"/>
      <point x="417" y="623"/>
      <point x="389" y="634" type="curve"/>
      <point x="389" y="722" type="line" smooth="yes"/>
      <point x="389" y="829"/>
      <point x="416" y="949"/>
      <point x="457" y="1022" type="curve"/>
      <point x="918" y="1022" type="line"/>
      <point x="918" y="450" type="line" smooth="yes"/>
      <point x="918" y="251"/>
      <point x="797" y="143"/>
      <point x="581" y="141" type="curve" smooth="yes"/>
      <point x="490" y="141"/>
      <point x="361" y="158"/>
      <point x="237" y="195" type="curve"/>
      <point x="199" y="47" type="line"/>
      <point x="328" y="3"/>
      <point x="474" y="-21"/>
    </contour>
  </outline>
</glyph>
<glyph name="finaltsadihebrew" format="2">
  <advance width="1105"/>
  <unicode hex="05E5"/>
  <anchor x="219" y="352" name="bottom"/>
  <anchor x="327" y="379" name="center"/>
  <anchor x="561" y="1180" name="top"/>
  <anchor x="-1" y="1180" name="topleft"/>
  <outline>
    <contour>
      <point x="596" y="-416" type="line"/>
      <point x="783" y="-416" type="line"/>
      <point x="783" y="292" type="line" smooth="yes"/>
      <point x="783" y="379"/>
      <point x="765" y="445"/>
      <point x="724" y="505" type="curve" smooth="yes"/>
      <point x="624" y="648" type="line"/>
      <point x="279" y="1180" type="line"/>
      <point x="56" y="1180" type="line"/>
      <point x="557" y="446" type="line" smooth="yes"/>
      <point x="584" y="407"/>
      <point x="596" y="363"/>
      <point x="596" y="311" type="curve" smooth="yes"/>
    </contour>
    <contour>
      <point x="670" y="485" type="line"/>
      <point x="1062" y="1180" type="line"/>
      <point x="839" y="1180" type="line"/>
      <point x="548" y="644" type="line"/>
    </contour>
  </outline>
</glyph>
<glyph name="tsadihebrew" format="2">
  <advance width="1128"/>
  <unicode hex="05E6"/>
  <anchor x="563" y="0" name="bottom"/>
  <anchor x="319" y="367" name="center"/>
  <anchor x="554" y="1180" name="top"/>
  <anchor x="18" y="1180" name="topleft"/>
  <outline>
    <contour>
      <point x="130" y="0" type="line"/>
      <point x="1009" y="0" type="line"/>
      <point x="1009" y="99" type="line"/>
      <point x="633" y="642" type="line"/>
      <point x="279" y="1180" type="line"/>
      <point x="56" y="1180" type="line"/>
      <point x="754" y="159" type="line"/>
      <point x="130" y="159" type="line"/>
    </contour>
    <contour>
      <point x="670" y="485" type="line"/>
      <point x="1062" y="1180" type="line"/>
      <point x="839" y="1180" type="line"/>
      <point x="548" y="644" type="line"/>
    </contour>
  </outline>
</glyph>
<glyph name="qofhebrew" format="2">
  <advance width="1283"/>
  <unicode hex="05E7"/>
  <anchor x="769" y="0" name="bottom"/>
  <anchor x="643" y="603" name="center"/>
  <anchor x="643" y="1180" name="top"/>
  <anchor x="42" y="1180" name="topleft"/>
  <outline>
    <contour>
      <point x="580" y="0" type="line"/>
      <point x="894" y="7"/>
      <point x="1103" y="190"/>
      <point x="1103" y="495" type="curve" smooth="yes"/>
      <point x="1103" y="1180" type="line"/>
      <point x="180" y="1180" type="line"/>
      <point x="180" y="1022" type="line"/>
      <point x="905" y="1022" type="line"/>
      <point x="905" y="491" type="line" smooth="yes"/>
      <point x="905" y="283"/>
      <point x="774" y="160"/>
      <point x="580" y="155" type="curve"/>
    </contour>
    <contour>
      <point x="202" y="-416" type="line"/>
      <point x="394" y="-416" type="line"/>
      <point x="394" y="453" type="line" smooth="yes"/>
      <point x="394" y="560"/>
      <point x="401" y="629"/>
      <point x="418" y="688" type="curve"/>
      <point x="256" y="688" type="line"/>
      <point x="232" y="639"/>
      <point x="202" y="578"/>
      <point x="202" y="440" type="curve" smooth="yes"/>
    </contour>
  </outline>
</glyph>
<glyph name="reshhebrew" format="2">
  <advance width="1008"/>
  <unicode hex="05E8"/>
  <anchor x="761" y="0" name="bottom"/>
  <anchor x="338" y="603" name="center"/>
  <anchor x="459" y="1180" name="top"/>
  <anchor x="-12" y="1180" name="topleft"/>
  <outline>
    <contour>
      <point x="660" y="0" type="line"/>
      <point x="858" y="0" type="line"/>
      <point x="858" y="805" type="line" smooth="yes"/>
      <point x="858" y="1041"/>
      <point x="709" y="1180"/>
      <point x="460" y="1180" type="curve" smooth="yes"/>
      <point x="60" y="1180" type="line"/>
      <point x="60" y="1022" type="line"/>
      <point x="453" y="1022" type="line" smooth="yes"/>
      <point x="582" y="1022"/>
      <point x="660" y="945"/>
      <point x="660" y="819" type="curve" smooth="yes"/>
    </contour>
  </outline>
</glyph>
<glyph name="shinhebrew" format="2">
  <advance width="1642"/>
  <unicode hex="05E9"/>
  <anchor x="806" y="0" name="bottom"/>
  <anchor x="1092" y="603" name="center"/>
  <anchor x="816" y="1180" name="top"/>
  <anchor x="27" y="1180" name="topleft"/>
  <anchor x="22" y="1180" name="topright"/>
  <outline>
    <contour>
      <point x="372" y="1180" type="line"/>
      <point x="180" y="1180" type="line"/>
      <point x="180" y="109" type="line"/>
      <point x="371" y="18"/>
      <point x="587" y="-29"/>
      <point x="782" y="-29" type="curve" smooth="yes"/>
      <point x="1152" y="-29"/>
      <point x="1462" y="139"/>
      <point x="1462" y="487" type="curve" smooth="yes"/>
      <point x="1462" y="1180" type="line"/>
      <point x="1270" y="1180" type="line"/>
      <point x="1270" y="506" type="line" smooth="yes"/>
      <point x="1270" y="249"/>
      <point x="1053" y="130"/>
      <point x="773" y="130" type="curve" smooth="yes"/>
      <point x="645" y="130"/>
      <point x="498" y="163"/>
      <point x="372" y="217" type="curve"/>
    </contour>
    <contour>
      <point x="649" y="332" type="curve"/>
      <point x="813" y="326" type="line"/>
      <point x="882" y="397"/>
      <point x="914" y="499"/>
      <point x="914" y="634" type="curve" smooth="yes"/>
      <point x="914" y="1180" type="line"/>
      <point x="721" y="1180" type="line"/>
      <point x="721" y="598" type="line" smooth="yes"/>
      <point x="721" y="479"/>
      <point x="697" y="384"/>
    </contour>
  </outline>
</glyph>
<glyph name="tavhebrew" format="2">
  <advance width="1284"/>
  <unicode hex="05EA"/>
  <anchor x="650" y="0" name="bottom"/>
  <anchor x="686" y="603" name="center"/>
  <anchor x="654" y="1180" name="top"/>
  <anchor x="28" y="1180" name="topleft"/>
  <outline>
    <contour>
      <point x="668" y="1180" type="curve" smooth="yes"/>
      <point x="113" y="1180" type="line"/>
      <point x="113" y="1022" type="line"/>
      <point x="331" y="1022" type="line"/>
      <point x="275" y="948"/>
      <point x="243" y="815"/>
      <point x="243" y="701" type="curve" smooth="yes"/>
      <point x="243" y="337" type="line" smooth="yes"/>
      <point x="243" y="210"/>
      <point x="194" y="153"/>
      <point x="79" y="153" type="curve" smooth="yes"/>
      <point x="57" y="153"/>
      <point x="34" y="154"/>
      <point x="10" y="157" type="curve"/>
      <point x="10" y="-1" type="line"/>
      <point x="52" y="-7"/>
      <point x="87" y="-11"/>
      <point x="129" y="-11" type="curve" smooth="yes"/>
      <point x="327" y="-11"/>
      <point x="436" y="105"/>
      <point x="436" y="324" type="curve" smooth="yes"/>
      <point x="436" y="716" type="line" smooth="yes"/>
      <point x="436" y="830"/>
      <point x="463" y="950"/>
      <point x="504" y="1022" type="curve"/>
      <point x="670" y="1022" type="line" smooth="yes"/>
      <point x="856" y="1022"/>
      <point x="936" y="937"/>
      <point x="936" y="741" type="curve" smooth="yes"/>
      <point x="937" y="0" type="line"/>
      <point x="1134" y="0" type="line"/>
      <point x="1134" y="729" type="line" smooth="yes"/>
      <point x="1134" y="1032"/>
      <point x="980" y="1180"/>
    </contour>
  </outline>
</glyph>
<glyph name="gereshhebrew" format="2">
  <advance width="355"/>
  <unicode hex="05F3"/>
  <outline>
    <contour>
      <point x="135" y="895" type="line"/>
      <point x="225" y="978"/>
      <point x="289" y="1110"/>
      <point x="289" y="1247" type="curve"/>
      <point x="290" y="1427" type="line"/>
      <point x="110" y="1427" type="line"/>
      <point x="110" y="1231" type="line"/>
      <point x="110" y="1129"/>
      <point x="77" y="1033"/>
      <point x="15" y="950" type="curve"/>
    </contour>
  </outline>
</glyph>
<glyph name="gershayimhebrew" format="2">
  <advance width="698"/>
  <unicode hex="05F4"/>
  <outline>
    <contour>
      <point x="149" y="895" type="line"/>
      <point x="239" y="978"/>
      <point x="303" y="1110"/>
      <point x="303" y="1247" type="curve"/>
      <point x="304" y="1427" type="line"/>
      <point x="124" y="1427" type="line"/>
      <point x="124" y="1231" type="line"/>
      <point x="124" y="1129"/>
      <point x="91" y="1033"/>
      <point x="29" y="950" type="curve"/>
    </contour>
    <contour>
      <point x="463" y="895" type="line"/>
      <point x="553" y="978"/>
      <point x="617" y="1110"/>
      <point x="617" y="1247" type="curve"/>
      <point x="618" y="1427" type="line"/>
      <point x="438" y="1427" type="line"/>
      <point x="438" y="1231" type="line"/>
      <point x="438" y="1129"/>
      <point x="405" y="1033"/>
      <point x="343" y="950" type="curve"/>
    </contour>
  </outline>
</glyph>
<glyph name="afii61664" format="2">
  <unicode hex="200C"/>
  <outline>
    <contour>
      <point x="-649" y="1275" type="line"/>
      <point x="-649" y="-200" type="line"/>
      <point x="-526" y="-200" type="line"/>
      <point x="-526" y="1275" type="line"/>
    </contour>
  </outline>
</glyph>
<glyph name="afii57598" format="2">
  <unicode hex="200D"/>
  <outline>
    <contour>
      <point x="-652" y="1275" type="line"/>
      <point x="-652" y="-200" type="line"/>
      <point x="-529" y="-200" type="line"/>
      <point x="-529" y="1275" type="line"/>
    </contour>
    <contour>
      <point x="-408" y="952" type="line"/>
      <point x="-316" y="1044" type="line"/>
      <point x="-765" y="1502" type="line"/>
      <point x="-856" y="1410" type="line"/>
    </contour>
    <contour>
      <point x="-856" y="1044" type="line"/>
      <point x="-764" y="952" type="line"/>
      <point x="-316" y="1410" type="line"/>
      <point x="-407" y="1502" type="line"/>
    </contour>
  </outline>
</glyph>
<glyph name="quoteright" format="2">
  <advance width="420"/>
  <unicode hex="2019"/>
  <anchor x="70" y="1536" name="_caron"/>
  <outline>
    <contour>
      <point x="340" y="1406" type="curve" smooth="yes"/>
      <point x="340" y="1536" type="line"/>
      <point x="142" y="1536" type="line"/>
      <point x="142" y="1403" type="line" smooth="yes"/>
      <point x="142" y="1294"/>
      <point x="108" y="1202"/>
      <point x="45" y="1113" type="curve"/>
      <point x="158" y="1037" type="line"/>
      <point x="274" y="1130"/>
      <point x="340" y="1285"/>
    </contour>
  </outline>
</glyph>
<glyph name="quotesinglbase" format="2">
  <advance width="420"/>
  <unicode hex="201A"/>
  <guideline y="901"/>
  <guideline y="555"/>
  <outline>
    <contour>
      <point x="330" y="77" type="curve"/>
      <point x="330" y="178" type="line"/>
      <point x="130" y="178" type="line"/>
      <point x="130" y="74" type="line"/>
      <point x="130" y="-34"/>
      <point x="98" y="-127"/>
      <point x="35" y="-216" type="curve"/>
      <point x="148" y="-292" type="line"/>
      <point x="264" y="-199"/>
      <point x="330" y="-44"/>
    </contour>
  </outline>
</glyph>
<glyph name="sheqel" format="2">
  <advance width="1743"/>
  <unicode hex="20AA"/>
  <outline>
    <contour>
      <point x="565" y="0" type="line"/>
      <point x="1033" y="0" type="line" smooth="yes"/>
      <point x="1365" y="0"/>
      <point x="1565" y="188"/>
      <point x="1563" y="490" type="curve"/>
      <point x="1563" y="1181" type="line"/>
      <point x="1379" y="1181" type="line"/>
      <point x="1379" y="486" type="line" smooth="yes"/>
      <point x="1379" y="284"/>
      <point x="1238" y="162"/>
      <point x="1041" y="163" type="curve" smooth="yes"/>
      <point x="749" y="163" type="line"/>
      <point x="749" y="823" type="line"/>
      <point x="565" y="823" type="line"/>
    </contour>
    <contour>
      <point x="150" y="0" type="line"/>
      <point x="334" y="0" type="line"/>
      <point x="334" y="1019" type="line"/>
      <point x="965" y="1019" type="line"/>
      <point x="965" y="588" type="line" smooth="yes"/>
      <point x="965" y="490"/>
      <point x="955" y="405"/>
      <point x="935" y="330" type="curve"/>
      <point x="945" y="322" type="line"/>
      <point x="1105" y="347" type="line"/>
      <point x="1136" y="424"/>
      <point x="1149" y="509"/>
      <point x="1149" y="599" type="curve" smooth="yes"/>
      <point x="1149" y="1181" type="line"/>
      <point x="150" y="1181" type="line"/>
    </contour>
  </outline>
</glyph>
<glyph name="longst" format="2">
  <advance width="1273"/>
  <unicode hex="FB05"/>
  <outline>
    <contour>
      <point x="396" y="932" type="line"/>
      <point x="396" y="1082" type="line"/>
      <point x="60" y="1082" type="line"/>
      <point x="60" y="932" type="line"/>
    </contour>
    <contour>
      <point x="694" y="1557"/>
      <point x="574" y="1557" type="curve" smooth="yes"/>
      <point x="360" y="1557"/>
      <point x="229" y="1428"/>
      <point x="229" y="1193" type="curve" smooth="yes"/>
      <point x="229" y="0" type="line"/>
      <point x="429" y="0" type="line"/>
      <point x="429" y="1193" type="line" smooth="yes"/>
      <point x="429" y="1320"/>
      <point x="490" y="1397"/>
      <point x="606" y="1397" type="curve" smooth="yes"/>
      <point x="665" y="1397"/>
      <point x="751" y="1382"/>
      <point x="790" y="1362" type="curve"/>
      <point x="790" y="1245" type="line"/>
      <point x="990" y="1245" type="line"/>
      <point x="990" y="1454" type="line"/>
      <point x="861" y="1517"/>
    </contour>
    <component base="t" xOffset="587"/>
  </outline>
</glyph>
<glyph name="ayinaltonehebrew" format="2">
  <advance width="1227"/>
  <unicode hex="FB20"/>
  <anchor x="548" y="0" name="bottom"/>
  <anchor x="624" y="762" name="center"/>
  <anchor x="590" y="1180" name="top"/>
  <anchor x="17" y="1180" name="topleft"/>
  <outline>
    <contour>
      <point x="485" y="-39" type="curve" smooth="yes"/>
      <point x="798" y="-39"/>
      <point x="997" y="141"/>
      <point x="1013" y="468" type="curve" smooth="yes"/>
      <point x="1047" y="1180" type="line"/>
      <point x="851" y="1180" type="line"/>
      <point x="817" y="459" type="line" smooth="yes"/>
      <point x="806" y="236"/>
      <point x="674" y="118"/>
      <point x="459" y="118" type="curve" smooth="yes"/>
      <point x="359" y="119"/>
      <point x="241" y="144"/>
      <point x="107" y="197" type="curve"/>
      <point x="60" y="49" type="line"/>
      <point x="217" y="-10"/>
      <point x="360" y="-39"/>
    </contour>
    <contour>
      <point x="138" y="1180" type="line"/>
      <point x="332" y="325" type="line" smooth="yes"/>
      <point x="356" y="221"/>
      <point x="407" y="150"/>
      <point x="463" y="97" type="curve"/>
      <point x="618" y="94" type="line"/>
      <point x="570" y="153"/>
      <point x="547" y="216"/>
      <point x="526" y="313" type="curve" smooth="yes"/>
      <point x="337" y="1180" type="line"/>
    </contour>
  </outline>
</glyph>
<glyph name="widealefhebrew" format="2">
  <advance width="1822"/>
  <unicode hex="FB21"/>
  <anchor x="888" y="0" name="bottom"/>
  <anchor x="701" y="279" name="center"/>
  <anchor x="949" y="1180" name="top"/>
  <anchor x="48" y="1180" name="topleft"/>
  <outline>
    <contour>
      <point x="1423" y="0" type="line"/>
      <point x="1696" y="0" type="line"/>
      <point x="414" y="1180" type="line"/>
      <point x="150" y="1180" type="line"/>
    </contour>
    <contour>
      <point x="223" y="0" type="line"/>
      <point x="415" y="0" type="line"/>
      <point x="415" y="571" type="line" smooth="yes"/>
      <point x="415" y="741"/>
      <point x="455" y="844"/>
      <point x="526" y="930" type="curve"/>
      <point x="467" y="1004" type="line"/>
      <point x="306" y="925"/>
      <point x="223" y="784"/>
      <point x="223" y="577" type="curve" smooth="yes"/>
    </contour>
    <contour>
      <point x="1244" y="315" type="line"/>
      <point x="1728" y="1180" type="line"/>
      <point x="1506" y="1180" type="line"/>
      <point x="1113" y="468" type="line"/>
    </contour>
  </outline>
</glyph>
<glyph name="widedalethebrew" format="2">
  <advance width="1356"/>
  <unicode hex="FB22"/>
  <anchor x="955" y="0" name="bottom"/>
  <anchor x="519" y="603" name="center"/>
  <anchor x="653" y="1180" name="top"/>
  <anchor x="17" y="1180" name="topleft"/>
  <outline>
    <contour>
      <point x="60" y="1180" type="line"/>
      <point x="60" y="1022" type="line"/>
      <point x="854" y="1022" type="line"/>
      <point x="854" y="0" type="line"/>
      <point x="1052" y="0" type="line"/>
      <point x="1052" y="1009" type="line"/>
      <point x="1292" y="1032" type="line"/>
      <point x="1292" y="1180" type="line"/>
    </contour>
  </outline>
</glyph>
<glyph name="widehehebrew" format="2">
  <advance width="1632"/>
  <unicode hex="FB23"/>
  <anchor x="801" y="0" name="bottom"/>
  <anchor x="801" y="603" name="center"/>
  <anchor x="787" y="1180" name="top"/>
  <anchor x="2" y="1180" name="topleft"/>
  <outline>
    <contour>
      <point x="146" y="0" type="line"/>
      <point x="341" y="0" type="line"/>
      <point x="341" y="390" type="line" smooth="yes"/>
      <point x="341" y="493"/>
      <point x="356" y="589"/>
      <point x="371" y="647" type="curve"/>
      <point x="362" y="656" type="line"/>
      <point x="185" y="631" type="line"/>
      <point x="171" y="591"/>
      <point x="146" y="515"/>
      <point x="146" y="396" type="curve" smooth="yes"/>
    </contour>
    <contour>
      <point x="1284" y="0" type="line"/>
      <point x="1482" y="0" type="line"/>
      <point x="1482" y="805" type="line" smooth="yes"/>
      <point x="1482" y="1041"/>
      <point x="1334" y="1180"/>
      <point x="1084" y="1180" type="curve" smooth="yes"/>
      <point x="147" y="1180" type="line"/>
      <point x="147" y="1022" type="line"/>
      <point x="1078" y="1022" type="line" smooth="yes"/>
      <point x="1206" y="1022"/>
      <point x="1284" y="945"/>
      <point x="1284" y="819" type="curve" smooth="yes"/>
    </contour>
  </outline>
</glyph>
<glyph name="widekafhebrew" format="2">
  <advance width="1562"/>
  <unicode hex="FB24"/>
  <anchor x="683" y="0" name="bottom"/>
  <anchor x="658" y="603" name="center"/>
  <anchor x="718" y="1180" name="top"/>
  <anchor x="4" y="1180" name="topleft"/>
  <outline>
    <contour>
      <point x="682" y="-34" type="curve" smooth="yes"/>
      <point x="1126" y="-34"/>
      <point x="1381" y="131"/>
      <point x="1382" y="468" type="curve" smooth="yes"/>
      <point x="1382" y="1180" type="line"/>
      <point x="114" y="1180" type="line"/>
      <point x="114" y="1022" type="line"/>
      <point x="1184" y="1022" type="line"/>
      <point x="1184" y="469" type="line" smooth="yes"/>
      <point x="1183" y="247"/>
      <point x="1023" y="130"/>
      <point x="675" y="130" type="curve" smooth="yes"/>
      <point x="527" y="130"/>
      <point x="326" y="152"/>
      <point x="108" y="195" type="curve"/>
      <point x="78" y="37" type="line"/>
      <point x="298" y="-10"/>
      <point x="513" y="-34"/>
    </contour>
  </outline>
</glyph>
<glyph name="widelamedhebrew" format="2">
  <advance width="1419"/>
  <unicode hex="FB25"/>
  <anchor x="639" y="0" name="bottom"/>
  <anchor x="471" y="603" name="center"/>
  <anchor x="800" y="1180" name="top"/>
  <anchor x="-60" y="1334" name="topleft"/>
  <outline>
    <contour>
      <point x="1134" y="1022" type="line"/>
      <point x="1319" y="1180" type="line"/>
      <point x="279" y="1180" type="line"/>
      <point x="279" y="1498" type="line"/>
      <point x="81" y="1498" type="line"/>
      <point x="81" y="1022" type="line"/>
    </contour>
    <contour>
      <point x="1347" y="1055" type="line"/>
      <point x="1347" y="1180" type="line"/>
      <point x="1195" y="1180" type="line"/>
      <point x="523" y="0" type="line"/>
      <point x="735" y="0" type="line"/>
    </contour>
  </outline>
</glyph>
<glyph name="finalwidememhebrew" format="2">
  <advance width="1759"/>
  <unicode hex="FB26"/>
  <anchor x="862" y="0" name="bottom"/>
  <anchor x="862" y="603" name="center"/>
  <anchor x="862" y="1180" name="top"/>
  <anchor x="-33" y="1180" name="topleft"/>
  <outline>
    <contour>
      <point x="110" y="0" type="line"/>
      <point x="1612" y="0" type="line"/>
      <point x="1612" y="1180" type="line"/>
      <point x="110" y="1180" type="line"/>
    </contour>
    <contour>
      <point x="308" y="159" type="line"/>
      <point x="308" y="1022" type="line"/>
      <point x="1414" y="1022" type="line"/>
      <point x="1414" y="159" type="line"/>
    </contour>
  </outline>
</glyph>
<glyph name="widereshhebrew" format="2">
  <advance width="1432"/>
  <unicode hex="FB27"/>
  <anchor x="1183" y="0" name="bottom"/>
  <anchor x="497" y="603" name="center"/>
  <anchor x="608" y="1180" name="top"/>
  <anchor x="1" y="1180" name="topleft"/>
  <outline>
    <contour>
      <point x="1084" y="0" type="line"/>
      <point x="1282" y="0" type="line"/>
      <point x="1282" y="805" type="line" smooth="yes"/>
      <point x="1282" y="1041"/>
      <point x="1134" y="1180"/>
      <point x="884" y="1180" type="curve" smooth="yes"/>
      <point x="60" y="1180" type="line"/>
      <point x="60" y="1022" type="line"/>
      <point x="878" y="1022" type="line" smooth="yes"/>
      <point x="1007" y="1022"/>
      <point x="1084" y="945"/>
      <point x="1084" y="819" type="curve" smooth="yes"/>
    </contour>
  </outline>
</glyph>
<glyph name="alternativeplushebrew" format="2">
  <advance width="1126"/>
  <unicode hex="FB29"/>
  <outline>
    <contour>
      <point x="467" y="1206" type="line"/>
      <point x="467" y="762" type="line"/>
      <point x="62" y="762" type="line"/>
      <point x="62" y="596" type="line"/>
      <point x="1060" y="596" type="line"/>
      <point x="1060" y="762" type="line"/>
      <point x="646" y="762" type="line"/>
      <point x="646" y="1206" type="line"/>
    </contour>
  </outline>
</glyph>
<glyph name="aleflamedhebrew" format="2">
  <advance width="1202"/>
  <unicode hex="FB4F"/>
  <outline>
    <contour>
      <point x="865" y="0" type="line"/>
      <point x="1084" y="0" type="line"/>
      <point x="279" y="1133" type="line"/>
      <point x="279" y="1498" type="line"/>
      <point x="81" y="1498" type="line"/>
      <point x="81" y="1099" type="line"/>
    </contour>
    <contour>
      <point x="1108" y="1180" type="line"/>
      <point x="885" y="1180" type="line"/>
      <point x="572" y="618" type="line"/>
      <point x="703" y="465" type="line"/>
    </contour>
  </outline>
</glyph>
<glyph name="A.smcp" format="2">
  <advance width="1169"/>
  <guideline y="721"/>
  <guideline y="444"/>
  <anchor x="596" y="0" name="bottom"/>
  <anchor x="1169" y="-407" name="bottom_dd"/>
  <anchor x="1106" y="0" name="ogonek"/>
  <anchor x="1124" y="0" name="right"/>
  <anchor x="329" y="1163" name="tonos"/>
  <anchor x="587" y="1320" name="top"/>
  <anchor x="1169" y="1320" name="top0315"/>
  <anchor x="1169" y="1600" name="top_dd"/>
  <outline>
    <contour>
      <point x="222" y="0" type="line"/>
      <point x="617" y="998" type="line"/>
      <point x="628" y="1165" type="line"/>
      <point x="499" y="1165" type="line"/>
      <point x="19" y="0" type="line"/>
    </contour>
    <contour>
      <point x="555" y="1002" type="line"/>
      <point x="946" y="0" type="line"/>
      <point x="1149" y="0" type="line"/>
      <point x="676" y="1165" type="line"/>
      <point x="545" y="1165" type="line"/>
    </contour>
    <contour>
      <point x="931" y="274" type="line"/>
      <point x="931" y="434" type="line"/>
      <point x="231" y="434" type="line"/>
      <point x="231" y="274" type="line"/>
    </contour>
  </outline>
</glyph>
<glyph name="AE.smcp" format="2">
  <advance width="1598"/>
  <anchor x="899" y="0" name="bottom"/>
  <anchor x="899" y="1290" name="top"/>
  <anchor x="1598" y="1290" name="top0315"/>
  <outline>
    <contour>
      <point x="1526" y="0" type="line"/>
      <point x="1526" y="158" type="line"/>
      <point x="969" y="158" type="line"/>
      <point x="969" y="0" type="line"/>
    </contour>
    <contour>
      <point x="1419" y="530" type="line"/>
      <point x="1419" y="688" type="line"/>
      <point x="939" y="688" type="line"/>
      <point x="939" y="530" type="line"/>
    </contour>
    <contour>
      <point x="1480" y="1007" type="line"/>
      <point x="1480" y="1165" type="line"/>
      <point x="924" y="1165" type="line"/>
      <point x="924" y="1007" type="line"/>
    </contour>
    <contour>
      <point x="221" y="0" type="line"/>
      <point x="779" y="1047" type="line"/>
      <point x="790" y="1165" type="line"/>
      <point x="665" y="1165" type="line"/>
      <point x="8" y="0" type="line"/>
    </contour>
    <contour>
      <point x="945" y="298" type="line"/>
      <point x="945" y="457" type="line"/>
      <point x="333" y="457" type="line"/>
      <point x="333" y="298" type="line"/>
    </contour>
    <contour>
      <point x="995" y="0" type="line"/>
      <point x="950" y="1165" type="line"/>
      <point x="751" y="1165" type="line"/>
      <point x="796" y="0" type="line"/>
    </contour>
  </outline>
</glyph>
<glyph name="C.smcp" format="2">
  <advance width="1149"/>
  <guideline y="721"/>
  <guideline y="444"/>
  <guideline x="791"/>
  <anchor x="586" y="-4" name="bottom"/>
  <anchor x="1149" y="-407" name="bottom_dd"/>
  <anchor x="587" y="1320" name="top"/>
  <anchor x="1149" y="1320" name="top0315"/>
  <anchor x="1149" y="1600" name="top_dd"/>
  <outline>
    <contour>
      <point x="1078" y="379" type="curve"/>
      <point x="878" y="379" type="line"/>
      <point x="854" y="229"/>
      <point x="789" y="144"/>
      <point x="593" y="144" type="curve" smooth="yes"/>
      <point x="383" y="144"/>
      <point x="293" y="302"/>
      <point x="293" y="534" type="curve" smooth="yes"/>
      <point x="293" y="631" type="line" smooth="yes"/>
      <point x="293" y="877"/>
      <point x="398" y="1021"/>
      <point x="605" y="1021" type="curve" smooth="yes"/>
      <point x="789" y="1021"/>
      <point x="857" y="930"/>
      <point x="878" y="781" type="curve"/>
      <point x="1078" y="781" type="line"/>
      <point x="1053" y="1014"/>
      <point x="900" y="1181"/>
      <point x="605" y="1181" type="curve" smooth="yes"/>
      <point x="291" y="1181"/>
      <point x="94" y="966"/>
      <point x="94" y="630" type="curve"/>
      <point x="94" y="534" type="line"/>
      <point x="94" y="198"/>
      <point x="290" y="-16"/>
      <point x="593" y="-16" type="curve" smooth="yes"/>
      <point x="900" y="-16"/>
      <point x="1053" y="153"/>
    </contour>
  </outline>
</glyph>
<glyph name="D.smcp" format="2">
  <advance width="1152"/>
  <anchor x="499" y="10" name="bottom"/>
  <anchor x="1152" y="-407" name="bottom_dd"/>
  <anchor x="245" y="586" name="cross"/>
  <anchor x="499" y="1320" name="top"/>
  <anchor x="1152" y="1320" name="top0315"/>
  <anchor x="1152" y="1600" name="top_dd"/>
  <outline>
    <contour>
      <point x="224" y="0" type="line"/>
      <point x="484" y="0" type="line"/>
      <point x="834" y="0"/>
      <point x="1058" y="216"/>
      <point x="1058" y="553" type="curve"/>
      <point x="1058" y="611" type="line"/>
      <point x="1058" y="948"/>
      <point x="832" y="1165"/>
      <point x="497" y="1165" type="curve"/>
      <point x="218" y="1165" type="line"/>
      <point x="218" y="1004" type="line"/>
      <point x="497" y="1004" type="line"/>
      <point x="737" y="1004"/>
      <point x="859" y="866"/>
      <point x="859" y="613" type="curve"/>
      <point x="859" y="553" type="line" smooth="yes"/>
      <point x="859" y="309"/>
      <point x="740" y="160"/>
      <point x="484" y="160" type="curve"/>
      <point x="225" y="160" type="line"/>
    </contour>
    <contour>
      <point x="335" y="0" type="line"/>
      <point x="335" y="1165" type="line"/>
      <point x="135" y="1165" type="line"/>
      <point x="135" y="0" type="line"/>
    </contour>
  </outline>
</glyph>
<glyph name="E.smcp" format="2">
  <advance width="998"/>
  <anchor x="537" y="8" name="bottom"/>
  <anchor x="998" y="-407" name="bottom_dd"/>
  <anchor x="881" y="0" name="ogonek"/>
  <anchor x="16" y="1166" name="tonos"/>
  <anchor x="537" y="1320" name="top"/>
  <anchor x="998" y="1320" name="top0315"/>
  <anchor x="998" y="1600" name="top_dd"/>
  <outline>
    <contour>
      <point x="944" y="0" type="line"/>
      <point x="944" y="160" type="line"/>
      <point x="288" y="160" type="line"/>
      <point x="288" y="0" type="line"/>
    </contour>
    <contour>
      <point x="335" y="0" type="line"/>
      <point x="335" y="1165" type="line"/>
      <point x="135" y="1165" type="line"/>
      <point x="135" y="0" type="line"/>
    </contour>
    <contour>
      <point x="857" y="522" type="line"/>
      <point x="857" y="682" type="line"/>
      <point x="288" y="682" type="line"/>
      <point x="288" y="522" type="line"/>
    </contour>
    <contour>
      <point x="937" y="1004" type="line"/>
      <point x="937" y="1165" type="line"/>
      <point x="288" y="1165" type="line"/>
      <point x="288" y="1004" type="line"/>
    </contour>
  </outline>
</glyph>
<glyph name="F.smcp" format="2">
  <advance width="968"/>
  <anchor x="491" y="10" name="bottom"/>
  <anchor x="968" y="-407" name="bottom_dd"/>
  <anchor x="286" y="254" name="cross"/>
  <anchor x="539" y="1320" name="top"/>
  <anchor x="968" y="1320" name="top0315"/>
  <anchor x="968" y="1600" name="top_dd"/>
  <outline>
    <contour>
      <point x="335" y="0" type="line"/>
      <point x="335" y="1165" type="line"/>
      <point x="135" y="1165" type="line"/>
      <point x="135" y="0" type="line"/>
    </contour>
    <contour>
      <point x="842" y="494" type="line"/>
      <point x="842" y="655" type="line"/>
      <point x="290" y="655" type="line"/>
      <point x="290" y="494" type="line"/>
    </contour>
    <contour>
      <point x="921" y="1004" type="line"/>
      <point x="921" y="1165" type="line"/>
      <point x="290" y="1165" type="line"/>
      <point x="290" y="1004" type="line"/>
    </contour>
  </outline>
</glyph>
<glyph name="G.smcp" format="2">
  <advance width="1195"/>
  <guideline y="721"/>
  <guideline y="444"/>
  <anchor x="587" y="-4" name="bottom"/>
  <anchor x="1195" y="-407" name="bottom_dd"/>
  <anchor x="582" y="1320" name="top"/>
  <anchor x="1195" y="1320" name="top0315"/>
  <anchor x="1195" y="1600" name="top_dd"/>
  <outline>
    <contour>
      <point x="1080" y="152" type="curve"/>
      <point x="1080" y="597" type="line"/>
      <point x="611" y="597" type="line"/>
      <point x="611" y="445" type="line"/>
      <point x="881" y="445" type="line"/>
      <point x="881" y="215" type="line"/>
      <point x="850" y="186"/>
      <point x="792" y="144"/>
      <point x="631" y="144" type="curve" smooth="yes"/>
      <point x="427" y="144"/>
      <point x="296" y="287"/>
      <point x="296" y="544" type="curve" smooth="yes"/>
      <point x="296" y="622" type="line" smooth="yes"/>
      <point x="296" y="874"/>
      <point x="394" y="1021"/>
      <point x="610" y="1021" type="curve" smooth="yes"/>
      <point x="786" y="1021"/>
      <point x="860" y="930"/>
      <point x="882" y="810" type="curve"/>
      <point x="1080" y="810" type="line"/>
      <point x="1049" y="1026"/>
      <point x="906" y="1181"/>
      <point x="608" y="1181" type="curve" smooth="yes"/>
      <point x="282" y="1181"/>
      <point x="95" y="975"/>
      <point x="95" y="620" type="curve" smooth="yes"/>
      <point x="95" y="544" type="line" smooth="yes"/>
      <point x="95" y="189"/>
      <point x="316" y="-16"/>
      <point x="627" y="-16" type="curve" smooth="yes"/>
      <point x="909" y="-16"/>
      <point x="1029" y="87"/>
    </contour>
  </outline>
</glyph>
<glyph name="H.smcp" format="2">
  <advance width="1253"/>
  <anchor x="615" y="10" name="bottom"/>
  <anchor x="1253" y="-407" name="bottom_dd"/>
  <anchor x="1118" y="0" name="right"/>
  <anchor x="46" y="1163" name="tonos"/>
  <anchor x="615" y="1320" name="top"/>
  <anchor x="1253" y="1320" name="top0315"/>
  <anchor x="1253" y="1600" name="top_dd"/>
  <outline>
    <contour>
      <point x="952" y="494" type="line"/>
      <point x="952" y="655" type="line"/>
      <point x="296" y="655" type="line"/>
      <point x="296" y="494" type="line"/>
    </contour>
    <contour>
      <point x="335" y="0" type="line"/>
      <point x="335" y="1165" type="line"/>
      <point x="135" y="1165" type="line"/>
      <point x="135" y="0" type="line"/>
    </contour>
    <contour>
      <point x="1118" y="0" type="line"/>
      <point x="1118" y="1165" type="line"/>
      <point x="918" y="1165" type="line"/>
      <point x="918" y="0" type="line"/>
    </contour>
  </outline>
</glyph>
<glyph name="I.smcp" format="2">
  <advance width="492"/>
  <guideline y="721"/>
  <guideline y="444"/>
  <anchor x="246" y="4" name="bottom"/>
  <anchor x="492" y="-407" name="bottom_dd"/>
  <anchor x="309" y="0" name="ogonek"/>
  <anchor x="346" y="0" name="right"/>
  <anchor x="49" y="1166" name="tonos"/>
  <anchor x="246" y="1320" name="top"/>
  <anchor x="492" y="1320" name="top0315"/>
  <anchor x="492" y="1600" name="top_dd"/>
  <outline>
    <contour>
      <point x="346" y="0" type="line"/>
      <point x="346" y="1165" type="line"/>
      <point x="146" y="1165" type="line"/>
      <point x="146" y="0" type="line"/>
    </contour>
  </outline>
</glyph>
<glyph name="K.alt" format="2">
  <advance width="1318"/>
  <anchor x="309" y="1153" name="cross"/>
  <anchor x="1187" y="0" name="right"/>
  <outline>
    <contour>
      <point x="384" y="0" type="line"/>
      <point x="384" y="1456" type="line"/>
      <point x="176" y="1456" type="line"/>
      <point x="176" y="0" type="line"/>
    </contour>
    <contour>
      <point x="649" y="650" type="line"/>
      <point x="1278" y="1456" type="line"/>
      <point x="1020" y="1456" type="line"/>
      <point x="524" y="819" type="line"/>
      <point x="267" y="819" type="line"/>
      <point x="301" y="650" type="line"/>
    </contour>
    <contour>
      <point x="533" y="677" type="line"/>
      <point x="1065" y="0" type="line"/>
      <point x="1319" y="0" type="line"/>
      <point x="649" y="857" type="line"/>
    </contour>
  </outline>
</glyph>
<glyph name="K.smcp" format="2">
  <advance width="1108"/>
  <anchor x="531" y="6" name="bottom"/>
  <anchor x="1108" y="-407" name="bottom_dd"/>
  <anchor x="230" y="982" name="cross"/>
  <anchor x="1055" y="0" name="right"/>
  <anchor x="518" y="1320" name="top"/>
  <anchor x="1108" y="1320" name="top0315"/>
  <anchor x="1108" y="1600" name="top_dd"/>
  <outline>
    <contour>
      <point x="335" y="0" type="line"/>
      <point x="335" y="1165" type="line"/>
      <point x="135" y="1165" type="line"/>
      <point x="135" y="0" type="line"/>
    </contour>
    <contour>
      <point x="575" y="605" type="line"/>
      <point x="1085" y="1165" type="line"/>
      <point x="841" y="1165" type="line"/>
      <point x="457" y="760" type="line"/>
      <point x="243" y="521" type="line"/>
      <point x="283" y="323" type="line"/>
    </contour>
    <contour>
      <point x="447" y="550" type="line"/>
      <point x="875" y="0" type="line"/>
      <point x="1117" y="0" type="line"/>
      <point x="580" y="690" type="line"/>
    </contour>
  </outline>
</glyph>
<glyph name="L.smcp" format="2">
  <advance width="953"/>
  <anchor x="526" y="8" name="bottom"/>
  <anchor x="953" y="-407" name="bottom_dd"/>
  <anchor x="519" y="1165" name="caron"/>
  <anchor x="514" y="652" name="dot"/>
  <anchor x="236" y="1320" name="top"/>
  <anchor x="953" y="1320" name="top0315"/>
  <anchor x="953" y="1600" name="top_dd"/>
  <outline>
    <contour>
      <point x="912" y="0" type="line"/>
      <point x="912" y="160" type="line"/>
      <point x="288" y="160" type="line"/>
      <point x="288" y="0" type="line"/>
    </contour>
    <contour>
      <point x="335" y="0" type="line"/>
      <point x="335" y="1165" type="line"/>
      <point x="135" y="1165" type="line"/>
      <point x="135" y="0" type="line"/>
    </contour>
  </outline>
</glyph>
<glyph name="M.smcp" format="2">
  <advance width="1541"/>
  <anchor x="765" y="10" name="bottom"/>
  <anchor x="1541" y="-407" name="bottom_dd"/>
  <anchor x="1398" y="0" name="right"/>
  <anchor x="765" y="1320" name="top"/>
  <anchor x="1541" y="1320" name="top0315"/>
  <anchor x="1541" y="1600" name="top_dd"/>
  <outline>
    <contour>
      <point x="393" y="1165" type="line"/>
      <point x="206" y="1165" type="line"/>
      <point x="697" y="0" type="line"/>
      <point x="843" y="0" type="line"/>
      <point x="1334" y="1165" type="line"/>
      <point x="1147" y="1165" type="line"/>
      <point x="771" y="269" type="line"/>
    </contour>
    <contour>
      <point x="304" y="1165" type="line"/>
      <point x="135" y="1165" type="line"/>
      <point x="135" y="0" type="line"/>
      <point x="334" y="0" type="line"/>
      <point x="334" y="389" type="line"/>
    </contour>
    <contour>
      <point x="1406" y="1165" type="line"/>
      <point x="1237" y="1165" type="line"/>
      <point x="1207" y="389" type="line"/>
      <point x="1207" y="0" type="line"/>
      <point x="1406" y="0" type="line"/>
    </contour>
  </outline>
</glyph>
<glyph name="N.smcp" format="2">
  <advance width="1252"/>
  <anchor x="619" y="4" name="bottom"/>
  <anchor x="1252" y="-407" name="bottom_dd"/>
  <anchor x="624" y="1320" name="top"/>
  <anchor x="1252" y="1320" name="top0315"/>
  <anchor x="1252" y="1600" name="top_dd"/>
  <outline>
    <contour>
      <point x="1117" y="0" type="line"/>
      <point x="1117" y="1165" type="line"/>
      <point x="918" y="1165" type="line"/>
      <point x="918" y="306" type="line"/>
      <point x="335" y="1165" type="line"/>
      <point x="135" y="1165" type="line"/>
      <point x="135" y="0" type="line"/>
      <point x="335" y="0" type="line"/>
      <point x="335" y="859" type="line"/>
      <point x="918" y="0" type="line"/>
    </contour>
  </outline>
</glyph>
<glyph name="Oslash.smcp" format="2">
  <advance width="1216"/>
  <anchor x="635" y="0" name="bottom"/>
  <anchor x="1216" y="-407" name="bottom_dd"/>
  <anchor x="130" y="1163" name="tonos"/>
  <anchor x="609" y="1320" name="top"/>
  <anchor x="1216" y="1320" name="top0315"/>
  <anchor x="1216" y="1600" name="top_dd"/>
  <outline>
    <contour>
      <point x="1121" y="553" type="curve"/>
      <point x="1121" y="611" type="line"/>
      <point x="1121" y="966"/>
      <point x="917" y="1181"/>
      <point x="607" y="1181" type="curve" smooth="yes"/>
      <point x="305" y="1181"/>
      <point x="94" y="966"/>
      <point x="94" y="611" type="curve"/>
      <point x="94" y="553" type="line"/>
      <point x="94" y="198"/>
      <point x="307" y="-16"/>
      <point x="609" y="-16" type="curve" smooth="yes"/>
      <point x="918" y="-16"/>
      <point x="1121" y="198"/>
    </contour>
    <contour>
      <point x="923" y="613" type="curve"/>
      <point x="923" y="553" type="line"/>
      <point x="923" y="290"/>
      <point x="809" y="147"/>
      <point x="609" y="147" type="curve" smooth="yes"/>
      <point x="418" y="147"/>
      <point x="292" y="290"/>
      <point x="292" y="553" type="curve" smooth="yes"/>
      <point x="292" y="613" type="line" smooth="yes"/>
      <point x="292" y="875"/>
      <point x="416" y="1017"/>
      <point x="607" y="1017" type="curve" smooth="yes"/>
      <point x="806" y="1017"/>
      <point x="923" y="875"/>
    </contour>
    <contour>
      <point x="269" y="-56" type="line"/>
      <point x="1112" y="1206" type="line"/>
      <point x="953" y="1206" type="line"/>
      <point x="109" y="-56" type="line"/>
    </contour>
  </outline>
</glyph>
<glyph name="P.smcp" format="2">
  <advance width="1123"/>
  <anchor x="500" y="10" name="bottom"/>
  <anchor x="1123" y="-407" name="bottom_dd"/>
  <anchor x="581" y="1320" name="top"/>
  <anchor x="1123" y="1320" name="top0315"/>
  <anchor x="1123" y="1600" name="top_dd"/>
  <outline>
    <contour>
      <point x="283" y="434" type="line"/>
      <point x="610" y="434" type="line"/>
      <point x="898" y="434"/>
      <point x="1060" y="570"/>
      <point x="1060" y="796" type="curve"/>
      <point x="1060" y="1010"/>
      <point x="898" y="1165"/>
      <point x="610" y="1165" type="curve"/>
      <point x="135" y="1165" type="line"/>
      <point x="135" y="0" type="line"/>
      <point x="335" y="0" type="line"/>
      <point x="335" y="1004" type="line"/>
      <point x="610" y="1004" type="line"/>
      <point x="786" y="1004"/>
      <point x="860" y="903"/>
      <point x="860" y="794" type="curve"/>
      <point x="860" y="677"/>
      <point x="786" y="595"/>
      <point x="610" y="595" type="curve"/>
      <point x="283" y="595" type="line"/>
    </contour>
  </outline>
</glyph>
<glyph name="Q.smcp" format="2">
  <advance width="1216"/>
  <anchor x="600" y="-10" name="bottom"/>
  <anchor x="1216" y="-407" name="bottom_dd"/>
  <anchor x="600" y="1320" name="top"/>
  <anchor x="1216" y="1320" name="top0315"/>
  <anchor x="1216" y="1600" name="top_dd"/>
  <outline>
    <contour>
      <point x="1121" y="-85" type="line"/>
      <point x="790" y="157" type="line"/>
      <point x="665" y="39" type="line"/>
      <point x="987" y="-202" type="line"/>
    </contour>
    <contour>
      <point x="1115" y="553" type="curve"/>
      <point x="1115" y="611" type="line"/>
      <point x="1115" y="966"/>
      <point x="910" y="1181"/>
      <point x="600" y="1181" type="curve" smooth="yes"/>
      <point x="298" y="1181"/>
      <point x="87" y="966"/>
      <point x="87" y="611" type="curve"/>
      <point x="87" y="553" type="line"/>
      <point x="87" y="198"/>
      <point x="300" y="-16"/>
      <point x="602" y="-16" type="curve" smooth="yes"/>
      <point x="912" y="-16"/>
      <point x="1115" y="198"/>
    </contour>
    <contour>
      <point x="917" y="613" type="curve"/>
      <point x="917" y="553" type="line"/>
      <point x="917" y="290"/>
      <point x="802" y="147"/>
      <point x="602" y="147" type="curve" smooth="yes"/>
      <point x="411" y="147"/>
      <point x="286" y="290"/>
      <point x="286" y="553" type="curve" smooth="yes"/>
      <point x="286" y="613" type="line" smooth="yes"/>
      <point x="286" y="875"/>
      <point x="409" y="1017"/>
      <point x="600" y="1017" type="curve" smooth="yes"/>
      <point x="800" y="1017"/>
      <point x="917" y="875"/>
    </contour>
  </outline>
</glyph>
<glyph name="T.smcp" format="2">
  <advance width="1064"/>
  <anchor x="532" y="3" name="bottom"/>
  <anchor x="1064" y="-407" name="bottom_dd"/>
  <anchor x="529" y="690" name="cross"/>
  <anchor x="623" y="0" name="right"/>
  <anchor x="531" y="1320" name="top"/>
  <anchor x="1064" y="1320" name="top0315"/>
  <anchor x="1064" y="1600" name="top_dd"/>
  <outline>
    <contour>
      <point x="630" y="0" type="line"/>
      <point x="630" y="1165" type="line"/>
      <point x="431" y="1165" type="line"/>
      <point x="431" y="0" type="line"/>
    </contour>
    <contour>
      <point x="1023" y="1004" type="line"/>
      <point x="1023" y="1165" type="line"/>
      <point x="40" y="1165" type="line"/>
      <point x="40" y="1004" type="line"/>
    </contour>
  </outline>
</glyph>
<glyph name="Thorn.smcp" format="2">
  <advance width="1023"/>
  <anchor x="450" y="10" name="bottom"/>
  <anchor x="1023" y="-407" name="bottom_dd"/>
  <anchor x="531" y="1320" name="top"/>
  <anchor x="1023" y="1320" name="top0315"/>
  <anchor x="1023" y="1600" name="top_dd"/>
  <outline>
    <contour>
      <point x="135" y="1165" type="line"/>
      <point x="135" y="0" type="line"/>
      <point x="335" y="0" type="line"/>
      <point x="335" y="1165" type="line"/>
    </contour>
    <contour>
      <point x="283" y="395" type="line"/>
      <point x="283" y="234" type="line"/>
      <point x="510" y="234" type="line" smooth="yes"/>
      <point x="798" y="234"/>
      <point x="960" y="370"/>
      <point x="960" y="596" type="curve" smooth="yes"/>
      <point x="960" y="810"/>
      <point x="798" y="965"/>
      <point x="510" y="965" type="curve" smooth="yes"/>
      <point x="286" y="965" type="line"/>
      <point x="286" y="804" type="line"/>
      <point x="510" y="804" type="line" smooth="yes"/>
      <point x="686" y="804"/>
      <point x="760" y="703"/>
      <point x="760" y="594" type="curve" smooth="yes"/>
      <point x="760" y="477"/>
      <point x="686" y="395"/>
      <point x="510" y="395" type="curve" smooth="yes"/>
    </contour>
  </outline>
</glyph>
<glyph name="U.smcp" format="2">
  <advance width="1146"/>
  <guideline y="721"/>
  <guideline y="444"/>
  <anchor x="573" y="0" name="bottom"/>
  <anchor x="1146" y="-407" name="bottom_dd"/>
  <anchor x="819" y="39" name="ogonek"/>
  <anchor x="720" y="0" name="right"/>
  <anchor x="573" y="1320" name="top"/>
  <anchor x="1146" y="1320" name="top0315"/>
  <anchor x="1146" y="1600" name="top_dd"/>
  <outline>
    <contour>
      <point x="1037" y="1165" type="line"/>
      <point x="837" y="1165" type="line"/>
      <point x="837" y="386" type="line" smooth="yes"/>
      <point x="837" y="218"/>
      <point x="734" y="144"/>
      <point x="574" y="144" type="curve" smooth="yes"/>
      <point x="415" y="144"/>
      <point x="310" y="218"/>
      <point x="310" y="386" type="curve" smooth="yes"/>
      <point x="310" y="1165" type="line"/>
      <point x="112" y="1165" type="line"/>
      <point x="112" y="386" type="line"/>
      <point x="112" y="120"/>
      <point x="310" y="-16"/>
      <point x="574" y="-16" type="curve" smooth="yes"/>
      <point x="826" y="-16"/>
      <point x="1037" y="120"/>
      <point x="1037" y="386" type="curve"/>
    </contour>
  </outline>
</glyph>
<glyph name="V.smcp" format="2">
  <advance width="1136"/>
  <anchor x="565" y="10" name="bottom"/>
  <anchor x="1136" y="-407" name="bottom_dd"/>
  <anchor x="565" y="1320" name="top"/>
  <anchor x="1136" y="1320" name="top0315"/>
  <anchor x="1136" y="1600" name="top_dd"/>
  <outline>
    <contour>
      <point x="903" y="1165" type="line"/>
      <point x="594" y="304" type="line"/>
      <point x="509" y="0" type="line"/>
      <point x="661" y="0" type="line"/>
      <point x="1117" y="1165" type="line"/>
    </contour>
    <contour>
      <point x="542" y="306" type="line"/>
      <point x="234" y="1165" type="line"/>
      <point x="19" y="1165" type="line"/>
      <point x="475" y="0" type="line"/>
      <point x="627" y="0" type="line"/>
    </contour>
  </outline>
</glyph>
<glyph name="W.smcp" format="2">
  <advance width="1553"/>
  <anchor x="785" y="10" name="bottom"/>
  <anchor x="1553" y="-407" name="bottom_dd"/>
  <anchor x="785" y="1320" name="top"/>
  <anchor x="1553" y="1320" name="top0315"/>
  <anchor x="1553" y="1600" name="top_dd"/>
  <outline>
    <contour>
      <point x="698" y="1165" type="line"/>
      <point x="455" y="278" type="line"/>
      <point x="394" y="0" type="line"/>
      <point x="528" y="0" type="line"/>
      <point x="791" y="915" type="line"/>
      <point x="835" y="1165" type="line"/>
    </contour>
    <contour>
      <point x="439" y="296" type="line"/>
      <point x="246" y="1165" type="line"/>
      <point x="49" y="1165" type="line"/>
      <point x="342" y="0" type="line"/>
      <point x="477" y="0" type="line"/>
    </contour>
    <contour>
      <point x="1321" y="1165" type="line"/>
      <point x="1130" y="298" type="line"/>
      <point x="1090" y="0" type="line"/>
      <point x="1225" y="0" type="line"/>
      <point x="1519" y="1165" type="line"/>
    </contour>
    <contour>
      <point x="1114" y="275" type="line"/>
      <point x="875" y="1165" type="line"/>
      <point x="740" y="1165" type="line"/>
      <point x="784" y="915" type="line"/>
      <point x="1039" y="0" type="line"/>
      <point x="1174" y="0" type="line"/>
    </contour>
  </outline>
</glyph>
<glyph name="X.smcp" format="2">
  <advance width="1114"/>
  <anchor x="552" y="8" name="bottom"/>
  <anchor x="1114" y="-407" name="bottom_dd"/>
  <anchor x="539" y="594" name="cross"/>
  <anchor x="979" y="0" name="right"/>
  <anchor x="552" y="1320" name="top"/>
  <anchor x="1114" y="1320" name="top0315"/>
  <anchor x="1114" y="1600" name="top_dd"/>
  <outline>
    <contour>
      <point x="555" y="738" type="line"/>
      <point x="282" y="1165" type="line"/>
      <point x="46" y="1165" type="line"/>
      <point x="439" y="587" type="line"/>
      <point x="38" y="0" type="line"/>
      <point x="275" y="0" type="line"/>
      <point x="558" y="434" type="line"/>
      <point x="843" y="0" type="line"/>
      <point x="1081" y="0" type="line"/>
      <point x="676" y="587" type="line"/>
      <point x="1067" y="1165" type="line"/>
      <point x="830" y="1165" type="line"/>
    </contour>
  </outline>
</glyph>
<glyph name="Y.smcp" format="2">
  <advance width="1069"/>
  <guideline y="721"/>
  <guideline y="444"/>
  <anchor x="534" y="10" name="bottom"/>
  <anchor x="1069" y="-407" name="bottom_dd"/>
  <anchor x="531" y="478" name="cross"/>
  <anchor x="-56" y="1163" name="tonos"/>
  <anchor x="534" y="1320" name="top"/>
  <anchor x="1069" y="1320" name="top0315"/>
  <anchor x="1069" y="1600" name="top_dd"/>
  <outline>
    <contour>
      <point x="832" y="1165" type="line"/>
      <point x="470" y="483" type="line"/>
      <point x="504" y="394" type="line"/>
      <point x="624" y="394" type="line"/>
      <point x="1056" y="1165" type="line"/>
    </contour>
    <contour>
      <point x="600" y="477" type="line"/>
      <point x="236" y="1165" type="line"/>
      <point x="12" y="1165" type="line"/>
      <point x="444" y="394" type="line"/>
      <point x="563" y="394" type="line"/>
    </contour>
    <contour>
      <point x="630" y="0" type="line"/>
      <point x="630" y="549" type="line"/>
      <point x="431" y="549" type="line"/>
      <point x="431" y="0" type="line"/>
    </contour>
  </outline>
</glyph>
<glyph name="Z.smcp" format="2">
  <advance width="1060"/>
  <anchor x="534" y="10" name="bottom"/>
  <anchor x="1060" y="-407" name="bottom_dd"/>
  <anchor x="534" y="1320" name="top"/>
  <anchor x="1060" y="1320" name="top0315"/>
  <anchor x="1060" y="1600" name="top_dd"/>
  <outline>
    <contour>
      <point x="995" y="0" type="line"/>
      <point x="995" y="160" type="line"/>
      <point x="139" y="160" type="line"/>
      <point x="139" y="0" type="line"/>
    </contour>
    <contour>
      <point x="200" y="0" type="line"/>
      <point x="971" y="1038" type="line"/>
      <point x="971" y="1165" type="line"/>
      <point x="844" y="1165" type="line"/>
      <point x="71" y="131" type="line"/>
      <point x="71" y="0" type="line"/>
    </contour>
    <contour>
      <point x="892" y="1004" type="line"/>
      <point x="892" y="1165" type="line"/>
      <point x="77" y="1165" type="line"/>
      <point x="77" y="1004" type="line"/>
    </contour>
  </outline>
</glyph>
<glyph name="crossbar" format="2">
  <advance width="931"/>
  <anchor x="464" y="722" name="_cross"/>
  <outline>
    <contour>
      <point x="789" y="645" type="line"/>
      <point x="789" y="805" type="line"/>
      <point x="147" y="805" type="line"/>
      <point x="147" y="645" type="line"/>
    </contour>
  </outline>
</glyph>
<glyph name="dollar.smcp" format="2">
  <advance width="1058"/>
  <outline>
    <contour>
      <point x="632" y="1083" type="line"/>
      <point x="632" y="1395" type="line"/>
      <point x="472" y="1395" type="line"/>
      <point x="472" y="1083" type="line"/>
    </contour>
    <contour>
      <point x="632" y="-237" type="line"/>
      <point x="632" y="75" type="line"/>
      <point x="472" y="75" type="line"/>
      <point x="472" y="-237" type="line"/>
    </contour>
    <component base="S.smcp"/>
  </outline>
</glyph>
<glyph name="five.sup" format="2">
  <advance width="754"/>
  <outline>
    <contour>
      <point x="109" y="386" type="line"/>
      <point x="244" y="353" type="line"/>
      <point x="271" y="373"/>
      <point x="300" y="395"/>
      <point x="370" y="395" type="curve"/>
      <point x="463" y="395"/>
      <point x="514" y="340"/>
      <point x="514" y="261" type="curve" smooth="yes"/>
      <point x="514" y="184"/>
      <point x="477" y="124"/>
      <point x="386" y="124" type="curve" smooth="yes"/>
      <point x="311" y="124"/>
      <point x="261" y="152"/>
      <point x="254" y="217" type="curve"/>
      <point x="88" y="217" type="line"/>
      <point x="95" y="72"/>
      <point x="234" y="-11"/>
      <point x="386" y="-11" type="curve" smooth="yes"/>
      <point x="588" y="-11"/>
      <point x="683" y="116"/>
      <point x="683" y="259" type="curve" smooth="yes"/>
      <point x="683" y="421"/>
      <point x="583" y="518"/>
      <point x="412" y="518" type="curve" smooth="yes"/>
      <point x="353" y="518"/>
      <point x="301" y="500"/>
      <point x="277" y="490" type="curve"/>
      <point x="298" y="651" type="line"/>
      <point x="641" y="651" type="line"/>
      <point x="641" y="789" type="line"/>
      <point x="159" y="789" type="line"/>
    </contour>
  </outline>
</glyph>
<glyph name="four.sup" format="2">
  <advance width="754"/>
  <outline>
    <contour>
      <point x="701" y="167" type="line"/>
      <point x="701" y="304" type="line"/>
      <point x="221" y="304" type="line"/>
      <point x="416" y="552" type="line"/>
      <point x="559" y="789" type="line"/>
      <point x="426" y="789" type="line"/>
      <point x="53" y="275" type="line"/>
      <point x="60" y="167" type="line"/>
    </contour>
    <contour>
      <point x="598" y="0" type="line"/>
      <point x="598" y="789" type="line"/>
      <point x="429" y="789" type="line"/>
      <point x="429" y="0" type="line"/>
    </contour>
  </outline>
</glyph>
<glyph name="gimelhebrew.001" format="2">
  <advance width="798"/>
  <anchor x="385" y="0" name="bottom"/>
  <anchor x="199" y="603" name="center"/>
  <anchor x="379" y="1180" name="top"/>
  <anchor x="45" y="1180" name="topleft"/>
  <outline>
    <contour>
      <point x="70" y="-9" type="curve" smooth="yes"/>
      <point x="274" y="-9"/>
      <point x="435" y="149"/>
      <point x="460" y="327" type="curve"/>
      <point x="467" y="327" type="line"/>
      <point x="536" y="0" type="line"/>
      <point x="722" y="0" type="line"/>
      <point x="640" y="391" type="line" smooth="yes"/>
      <point x="628" y="447"/>
      <point x="621" y="514"/>
      <point x="621" y="572" type="curve" smooth="yes"/>
      <point x="621" y="1180" type="line"/>
      <point x="160" y="1180" type="line"/>
      <point x="160" y="1022" type="line"/>
      <point x="426" y="1022" type="line"/>
      <point x="426" y="464" type="line"/>
      <point x="392" y="301"/>
      <point x="276" y="178"/>
      <point x="82" y="172" type="curve" smooth="yes"/>
      <point x="63" y="172"/>
      <point x="42" y="173"/>
      <point x="20" y="177" type="curve"/>
      <point x="20" y="-5" type="line"/>
      <point x="36" y="-8"/>
      <point x="54" y="-9"/>
    </contour>
  </outline>
</glyph>
<glyph name="one.sup" format="2">
  <advance width="754"/>
  <outline>
    <contour>
      <point x="502" y="0" type="line"/>
      <point x="502" y="789" type="line"/>
      <point x="483" y="789" type="line"/>
      <point x="122" y="671" type="line"/>
      <point x="122" y="536" type="line"/>
      <point x="334" y="591" type="line"/>
      <point x="334" y="0" type="line"/>
    </contour>
  </outline>
</glyph>
<glyph name="reshhebrew.002" format="2">
  <advance width="1005"/>
  <anchor x="776" y="0" name="bottom"/>
  <anchor x="353" y="603" name="center"/>
  <anchor x="474" y="1180" name="top"/>
  <anchor x="3" y="1180" name="topleft"/>
  <outline>
    <contour>
      <point x="675" y="0" type="line"/>
      <point x="873" y="0" type="line"/>
      <point x="873" y="805" type="line" smooth="yes"/>
      <point x="873" y="1041"/>
      <point x="724" y="1180"/>
      <point x="475" y="1180" type="curve" smooth="yes"/>
      <point x="75" y="1180" type="line"/>
      <point x="75" y="1022" type="line"/>
      <point x="468" y="1022" type="line" smooth="yes"/>
      <point x="597" y="1022"/>
      <point x="675" y="945"/>
      <point x="675" y="819" type="curve" smooth="yes"/>
    </contour>
  </outline>
</glyph>
<glyph name="seven.sup" format="2">
  <advance width="754"/>
  <outline>
    <contour>
      <point x="682" y="694" type="line"/>
      <point x="682" y="789" type="line"/>
      <point x="58" y="789" type="line"/>
      <point x="58" y="653" type="line"/>
      <point x="504" y="653" type="line"/>
      <point x="158" y="0" type="line"/>
      <point x="336" y="0" type="line"/>
    </contour>
  </outline>
</glyph>
